<svg width="57" height="56" viewBox="0 0 57 56" fill="none" xmlns="http://www.w3.org/2000/svg">
<rect x="4.6665" y="4" width="48" height="48" rx="24" fill="#EEF2F6"/>
<rect x="4.6665" y="4" width="48" height="48" rx="24" stroke="#F8FAFC" stroke-width="8"/>
<path d="M32.7588 37.7501H25.2588L26.5498 30.0001C26.6083 29.6498 26.7891 29.3317 27.0601 29.1023C27.3311 28.8728 27.6747 28.747 28.0298 28.7471H29.9878C30.3429 28.747 30.6865 28.8728 30.9575 29.1023C31.2285 29.3317 31.4093 29.6498 31.4678 30.0001L32.7588 37.7501Z" stroke="#121926" stroke-width="1.5" stroke-linecap="round" stroke-linejoin="round"/>
<path d="M25.2588 37.75H35.7588" stroke="#121926" stroke-width="1.5" stroke-linecap="round" stroke-linejoin="round"/>
<path d="M32.009 33.25H38.429C38.6509 33.25 38.87 33.2008 39.0706 33.1059C39.2712 33.0109 39.4483 32.8727 39.589 32.7011C39.7297 32.5295 39.8306 32.3288 39.8843 32.1135C39.9381 31.8982 39.9435 31.6736 39.9 31.456L37.5 19.456C37.432 19.1159 37.2483 18.8099 36.9801 18.59C36.7119 18.3701 36.3758 18.25 36.029 18.25H19.589C19.367 18.25 19.1479 18.2992 18.9473 18.3941C18.7467 18.4891 18.5697 18.6273 18.4289 18.7989C18.2882 18.9705 18.1873 19.1712 18.1336 19.3865C18.0798 19.6018 18.0745 19.8264 18.118 20.044L20.518 32.044C20.5859 32.3841 20.7697 32.6901 21.0379 32.91C21.306 33.1299 21.6422 33.25 21.989 33.25H26.009" stroke="#121926" stroke-width="1.5" stroke-linecap="round" stroke-linejoin="round"/>
<path d="M35 22L27 22" stroke="#0FA025" stroke-width="1.5" stroke-linecap="round" stroke-linejoin="round"/>
</svg>
