<svg width="56" height="56" viewBox="0 0 56 56" fill="none" xmlns="http://www.w3.org/2000/svg">
<rect x="4" y="4" width="48" height="48" rx="24" fill="#EEF2F6"/>
<rect x="4" y="4" width="48" height="48" rx="24" stroke="#F8FAFC" stroke-width="8"/>
<g clip-path="url(#clip0_910_4083)">
<path d="M37.75 28.75V37.75C37.75 38.1478 37.592 38.5294 37.3107 38.8107C37.0294 39.092 36.6478 39.25 36.25 39.25H19.75C19.3522 39.25 18.9706 39.092 18.6893 38.8107C18.408 38.5294 18.25 38.1478 18.25 37.75V28.75" stroke="#121926" stroke-width="1.5" stroke-linecap="round" stroke-linejoin="round"/>
<path d="M34.75 32.5C34.75 31.7044 34.4339 30.9413 33.8713 30.3787C33.3087 29.8161 32.5456 29.5 31.75 29.5C30.9544 29.5 30.1913 29.8161 29.6287 30.3787C29.0661 30.9413 28.75 31.7044 28.75 32.5V39.25H34.75V32.5Z" stroke="#121926" stroke-width="1.5" stroke-linecap="round" stroke-linejoin="round"/>
<path d="M25 31.75H22C21.5858 31.75 21.25 32.0858 21.25 32.5V35.5C21.25 35.9142 21.5858 36.25 22 36.25H25C25.4142 36.25 25.75 35.9142 25.75 35.5V32.5C25.75 32.0858 25.4142 31.75 25 31.75Z" stroke="#121926" stroke-width="1.5" stroke-linecap="round" stroke-linejoin="round"/>
<path d="M32.125 34.7598C31.9179 34.7598 31.75 34.5919 31.75 34.3848C31.75 34.1777 31.9179 34.0098 32.125 34.0098" stroke="#121926" stroke-width="1.5"/>
<path d="M32.125 34.7598C32.3321 34.7598 32.5 34.5919 32.5 34.3848C32.5 34.1777 32.3321 34.0098 32.125 34.0098" stroke="#121926" stroke-width="1.5"/>
<path d="M16.75 23.5C16.7928 24.2176 17.108 24.8917 17.6312 25.3847C18.1544 25.8776 18.8462 26.1521 19.565 26.1521C20.2839 26.1521 20.9756 25.8776 21.4988 25.3847C22.022 24.8917 22.3372 24.2176 22.38 23.5C22.38 24.2453 22.6761 24.96 23.203 25.487C23.73 26.0139 24.4447 26.31 25.19 26.31C25.9353 26.31 26.65 26.0139 27.177 25.487C27.7039 24.96 28 24.2453 28 23.5C28.0428 24.2176 28.358 24.8917 28.8812 25.3847C29.4044 25.8776 30.0961 26.1521 30.815 26.1521C31.5339 26.1521 32.2256 25.8776 32.7488 25.3847C33.272 24.8917 33.5872 24.2176 33.63 23.5C33.63 24.2453 33.9261 24.96 34.453 25.487C34.98 26.0139 35.6947 26.31 36.44 26.31C37.1853 26.31 37.9 26.0139 38.427 25.487C38.9539 24.96 39.25 24.2453 39.25 23.5L37.88 17.34C37.8436 17.1733 37.7514 17.024 37.6187 16.9167C37.486 16.8094 37.3206 16.7506 37.15 16.75H18.85C18.6793 16.7506 18.514 16.8094 18.3813 16.9167C18.2486 17.024 18.1564 17.1733 18.12 17.34L16.75 23.5Z" stroke="#121926" stroke-width="1.5" stroke-linecap="round" stroke-linejoin="round"/>
</g>
<defs>
<clipPath id="clip0_910_4083">
<rect width="24" height="24" fill="white" transform="translate(16 16)"/>
</clipPath>
</defs>
</svg>
