<svg width="57" height="56" viewBox="0 0 57 56" fill="none" xmlns="http://www.w3.org/2000/svg">
<rect x="4.3335" y="4" width="48" height="48" rx="24" fill="#EEF2F6"/>
<rect x="4.3335" y="4" width="48" height="48" rx="24" stroke="#F8FAFC" stroke-width="8"/>
<path d="M31.7588 37.7501H24.2588L25.5498 30.0001C25.6083 29.6498 25.7891 29.3317 26.0601 29.1023C26.3311 28.8728 26.6747 28.747 27.0298 28.7471H28.9878C29.3429 28.747 29.6865 28.8728 29.9575 29.1023C30.2285 29.3317 30.4093 29.6498 30.4678 30.0001L31.7588 37.7501Z" stroke="#121926" stroke-width="1.5" stroke-linecap="round" stroke-linejoin="round"/>
<path d="M24.2588 37.75H34.7588" stroke="#121926" stroke-width="1.5" stroke-linecap="round" stroke-linejoin="round"/>
<path d="M31.009 33.25H37.429C37.6509 33.25 37.87 33.2008 38.0706 33.1059C38.2712 33.0109 38.4483 32.8727 38.589 32.7011C38.7297 32.5295 38.8306 32.3288 38.8843 32.1135C38.9381 31.8982 38.9435 31.6736 38.9 31.456L36.5 19.456C36.432 19.1159 36.2483 18.8099 35.9801 18.59C35.7119 18.3701 35.3758 18.25 35.029 18.25H18.589C18.367 18.25 18.1479 18.2992 17.9473 18.3941C17.7467 18.4891 17.5697 18.6273 17.4289 18.7989C17.2882 18.9705 17.1873 19.1712 17.1336 19.3865C17.0798 19.6018 17.0745 19.8264 17.118 20.044L19.518 32.044C19.5859 32.3841 19.7697 32.6901 20.0379 32.91C20.306 33.1299 20.6422 33.25 20.989 33.25H25.009" stroke="#121926" stroke-width="1.5" stroke-linecap="round" stroke-linejoin="round"/>
<path d="M34 22L26 22" stroke="#E60000" stroke-width="1.5" stroke-linecap="round" stroke-linejoin="round"/>
</svg>
