<svg width="177" height="176" viewBox="0 0 177 176" fill="none" xmlns="http://www.w3.org/2000/svg">
<rect width="176" height="176" transform="translate(0.5)" fill="white"/>
<rect x="18.5" y="18" width="140" height="140" rx="70" fill="#D9EDFF"/>
<path d="M46.7549 88.0037C46.7549 99.0743 51.1527 109.692 58.9808 117.52C66.809 125.348 77.4262 129.746 88.4968 129.746C99.5675 129.746 110.185 125.348 118.013 117.52C125.841 109.692 130.239 99.0743 130.239 88.0037C130.239 76.933 125.841 66.3158 118.013 58.4877C110.185 50.6595 99.5675 46.2617 88.4968 46.2617C77.4262 46.2617 66.809 50.6595 58.9808 58.4877C51.1527 66.3158 46.7549 76.933 46.7549 88.0037Z" fill="#D9EDFF"/>
<path d="M58.9793 117.521C51.1509 109.692 46.7529 99.0746 46.7529 88.0036C46.7529 76.9326 51.1509 66.315 58.9793 58.4866C66.8077 50.6582 77.4253 46.2603 88.4963 46.2603C99.5673 46.2603 110.185 50.6582 118.013 58.4866L58.9793 117.521Z" fill="white"/>
<path d="M46.7578 88.0037C46.7578 93.4853 47.8375 98.9133 49.9352 103.978C52.033 109.042 55.1076 113.644 58.9837 117.52C62.8598 121.396 67.4614 124.47 72.5258 126.568C77.5902 128.666 83.0181 129.746 88.4998 129.746C93.9814 129.746 99.4093 128.666 104.474 126.568C109.538 124.47 114.14 121.396 118.016 117.52C121.892 113.644 124.967 109.042 127.064 103.978C129.162 98.9133 130.242 93.4853 130.242 88.0037C130.242 82.522 129.162 77.0941 127.064 72.0297C124.967 66.9654 121.892 62.3638 118.016 58.4877C114.14 54.6116 109.538 51.5369 104.474 49.4391C99.4093 47.3414 93.9814 46.2617 88.4998 46.2617C83.0181 46.2617 77.5902 47.3414 72.5258 49.4391C67.4614 51.5369 62.8598 54.6116 58.9837 58.4877C55.1076 62.3638 52.033 66.9654 49.9352 72.0297C47.8375 77.0941 46.7578 82.522 46.7578 88.0037Z" stroke="#020064" stroke-width="1.67" stroke-linecap="round" stroke-linejoin="round"/>
<path d="M110.279 109.782L92.3369 91.844" stroke="#020064" stroke-width="1.67" stroke-linecap="round" stroke-linejoin="round"/>
<path d="M83.0557 88.0037C83.0557 89.4477 83.6293 90.8325 84.6504 91.8536C85.6714 92.8747 87.0563 93.4483 88.5003 93.4483C89.9443 93.4483 91.3291 92.8747 92.3502 91.8536C93.3712 90.8325 93.9449 89.4477 93.9449 88.0037C93.9449 87.2887 93.804 86.5807 93.5304 85.9201C93.2568 85.2596 92.8558 84.6594 92.3502 84.1538C91.8446 83.6482 91.2444 83.2471 90.5838 82.9735C89.9233 82.6999 89.2153 82.5591 88.5003 82.5591C87.7853 82.5591 87.0773 82.6999 86.4167 82.9735C85.7561 83.2471 85.1559 83.6482 84.6504 84.1538C84.1448 84.6594 83.7437 85.2596 83.4701 85.9201C83.1965 86.5807 83.0557 87.2887 83.0557 88.0037Z" stroke="#020064" stroke-width="1.67" stroke-linecap="round" stroke-linejoin="round"/>
<path d="M88.5 68.04V82.559" stroke="#020064" stroke-width="1.67" stroke-linecap="round" stroke-linejoin="round"/>
</svg>
