<svg width="24" height="24" viewBox="0 0 24 24" fill="none" xmlns="http://www.w3.org/2000/svg">
<rect width="24" height="24" rx="4" fill="white"/>
<path d="M4.78001 9.76023C4.85584 9.19909 5.00721 8.65079 5.23001 8.13023C5.47654 7.42358 5.81261 6.75144 6.23001 6.13023C7.07925 5.04544 8.21051 4.21515 9.50001 3.73023C10.0026 3.53628 10.5261 3.40203 11.06 3.33023C11.7035 3.24018 12.3565 3.24018 13 3.33023C14.6643 3.52526 16.2065 4.30104 17.3552 5.52108C18.5039 6.74111 19.1855 8.3272 19.28 10.0002C19.3647 11.0086 19.2298 12.0234 18.8845 12.9747C18.5393 13.9259 17.9918 14.791 17.28 15.5102L12.1 20.7802C11.1701 19.6844 10.1679 18.6521 9.10001 17.6902C8.02482 16.7486 7.05574 15.6924 6.21001 14.5402C5.31921 13.321 4.82045 11.8596 4.78001 10.3502C4.75001 10.1502 4.76001 10.0002 4.78001 9.76023ZM12.15 9.43023C11.88 9.23023 11.72 9.09023 11.54 8.97023C11.3609 8.82948 11.1552 8.72618 10.9354 8.66647C10.7155 8.60675 10.4859 8.59185 10.2601 8.62263C10.0344 8.65341 9.81711 8.72926 9.62126 8.84566C9.4254 8.96206 9.25494 9.11665 9.12001 9.30023C8.54001 10.0102 8.65001 10.7902 9.48001 11.5802C10.31 12.3702 10.94 12.9902 11.72 13.6302C11.857 13.6973 12.0075 13.7322 12.16 13.7322C12.3125 13.7322 12.463 13.6973 12.6 13.6302C13.4784 12.8785 14.31 12.0736 15.09 11.2202C15.2418 11.0514 15.3536 10.8506 15.4171 10.6326C15.4805 10.4146 15.494 10.1851 15.4565 9.96124C15.4191 9.73733 15.3316 9.52476 15.2006 9.33933C15.0696 9.1539 14.8985 9.0004 14.7 8.89023C13.72 8.28023 12.92 8.73023 12.15 9.43023Z" fill="#D92D79"/>
</svg>
