<?xml version="1.0" encoding="UTF-8"?>
<svg id="Layer_2" xmlns="http://www.w3.org/2000/svg" viewBox="0 0 573.6 770.05">
  <defs>
    <style>
      .cls-1 {
        fill: #f27e31;
      }
    </style>
  </defs>
  <g id="Layer_1-2" data-name="Layer_1">
    <path class="cls-1" d="M573.16,273.21c-3.96-70.98-34.74-137.19-89.01-191.46C431.43,29.03,361.34,0,286.8,0S142.17,29.03,89.45,81.74C35.18,136.02,4.4,202.23.44,273.21c-2.01,36.08,2.85,73.32,14.44,110.7,11.85,38.21,30.8,76.71,56.32,114.44,51.28,75.8,205.84,265.9,207.39,267.81,2.01,2.47,5.02,3.9,8.2,3.9s6.2-1.43,8.2-3.9c1.56-1.91,156.11-192.01,207.39-267.81,25.52-37.73,44.47-76.23,56.32-114.44,11.59-37.37,16.45-74.62,14.44-110.7ZM310.34,413.06c-.22-4.01,0-8.18.42-12.04.97-8.88,6.66-16.57,14.89-20.03,6.89-2.9,13.22-6.88,18.78-11.72,14.72-12.8,24.01-31.65,24.01-52.69,0-3.17-.21-6.28-.63-9.34-.07-1.99-.23-3.47-.32-4.3-1.13-11.31-2.83-66.83-5.09-92.74-1.11-12.72-1-11.93-1.57-20.82-.28-4.31.38-6.99-1.15-10.48-.58-1.33-3.6-7.74-10.67-9.33-.86-.2-6.34-1.34-11.24,2.09-.67.47-3.92,2.85-5.14,7.05-.69,2.39-.4,4.38-.38,4.96.43,20.67-.27,38.87,0,58.3.07,4.87.13,9.37.17,13.5.26,23.12.22,34.85.02,36.23-.65,4.47-4.03,8.29-7.62,10.3-6.83,3.8-13.96.78-14.86.38-8.31-3.69-10.13-12.5-10.29-13.34-.13-14.09-.05-28.19-.02-42.28.05-21.29,0-42.58-.91-63.84-.55-12.8-5.23-15.33-8.75-15.54-.7-.04-1.94-.03-3.19,0-1.26-.03-2.49-.04-3.19,0-3.52.22-8.2,2.75-8.75,15.54-.92,21.27-.96,42.55-.91,63.84.04,14.09.11,28.19-.02,42.28-.15.85-1.97,9.65-10.29,13.34-.9.4-8.03,3.42-14.86-.38-3.59-2.01-6.97-5.83-7.62-10.3-.2-1.38-.25-13.11.02-36.23.05-4.13.1-8.63.17-13.5.27-19.43-.43-37.63,0-58.3.02-.57.31-2.57-.38-4.96-1.22-4.2-4.47-6.58-5.14-7.05-4.9-3.43-10.38-2.29-11.24-2.09-7.07,1.59-10.09,8-10.67,9.33-1.53,3.49-.86,6.17-1.15,10.48-.57,8.89-.46,8.1-1.57,20.82-2.26,25.9-3.97,81.42-5.09,92.74-.09.83-.25,2.31-.32,4.3-.42,3.06-.63,6.18-.63,9.34,0,21.04,9.3,39.89,24.01,52.69,5.56,4.84,11.89,8.82,18.78,11.72,8.23,3.46,13.91,11.16,14.89,20.03.42,3.86.64,8.03.42,12.04-.31,5.78-1,24.69-1.8,42.24-81.98-12.28-145.05-83.16-145.05-168.51,0-93.96,76.44-170.39,170.39-170.39s170.39,76.44,170.39,170.39c0,85.35-63.07,156.23-145.05,168.51-.8-17.55-1.49-36.46-1.8-42.24Z"/>
  </g>
</svg>