<svg width="158" height="38" viewBox="0 0 158 38" fill="none" xmlns="http://www.w3.org/2000/svg">
<path d="M56.0002 28.4079C53.4815 28.4079 52.318 27.1834 52.318 25.6729C52.318 24.1624 53.4792 22.9379 56.0002 22.9379C58.5213 22.9379 60.5623 24.1624 60.5623 25.6729C60.5623 27.1834 58.5213 28.4079 56.0002 28.4079ZM64.9706 17.014C64.6702 15.0189 63.9938 13.1538 62.738 11.5913C60.9856 9.41176 58.6324 8.6104 55.9104 8.77587C51.5163 9.04299 48.9526 13.0403 49.1868 16.5105C49.2317 17.1795 49.4942 17.6854 50.1138 17.8816C50.8115 18.1014 51.5328 18.326 52.2541 18.3614C53.0629 18.4016 53.886 18.3425 54.1106 17.4348C54.2478 16.884 54.1768 16.3048 54.2856 15.747C54.4748 14.7778 54.9928 13.3524 56.0499 13.0356C56.7286 12.8323 57.4973 12.8701 58.1547 13.1301C59.0439 13.4824 59.6163 14.2695 59.7818 15.2009C60.0089 16.494 60.1366 17.8059 60.2903 19.1131C60.3399 19.541 60.3352 19.9736 60.3565 20.418C59.5737 20.1462 58.8666 19.8507 58.1358 19.6568C56.6009 19.2455 55.0566 18.9122 53.4484 19.255C51.2821 19.7159 49.6669 20.8411 48.9148 23.0443C48.5175 24.212 48.4158 25.4176 48.4418 26.6468C48.4962 29.3322 50.128 31.8592 53.245 32.1429C54.5458 32.2611 55.856 32.4171 57.1449 32.0861C57.8922 31.8947 58.6183 31.6134 59.3798 31.3652C59.3017 31.6914 59.2048 32.027 59.1433 32.3698C58.999 33.1546 59.1977 33.5328 59.971 33.6321C60.9028 33.755 61.8512 33.7834 62.7924 33.7881C63.8496 33.7952 63.9607 33.6534 64.2209 32.5967C64.9422 29.6963 65.2922 26.7532 65.2851 23.7605C65.278 21.5054 65.3064 19.2502 64.9682 17.014" fill="#FC5203"/>
<path d="M37.1158 18.467C38.0973 15.7225 40.0342 14.6328 41.5075 15.1599C42.9809 15.6871 43.435 17.6302 42.4535 20.3747C41.4721 23.1191 39.6818 24.06 38.2084 23.5352C36.735 23.008 36.1367 21.2115 37.1182 18.4694M38.4662 27.1945C38.8895 27.2536 39.3129 27.315 39.7338 27.3741C41.4697 27.4569 42.9171 26.795 44.1279 25.6107C45.8473 23.9252 46.8098 21.8048 47.2355 19.4433C47.5146 17.895 47.472 16.3301 46.578 14.9685C45.4381 13.231 43.9056 11.9876 41.8765 11.4652C40.9825 11.2335 40.0484 11.1579 39.1284 11.2666C37.0094 11.5219 35.1221 12.789 34.0201 14.6092C32.7359 16.7319 32.0288 19.0556 31.9365 21.5566C31.8396 24.1947 32.1092 26.7737 33.3248 29.1565C34.292 31.0594 35.5928 32.6787 37.5722 33.5533C40.5497 34.87 43.4374 34.5485 46.2517 32.9576C47.3135 32.3572 47.5831 29.8279 46.1216 29.5182C45.1922 29.322 43.5225 30.5134 42.6758 30.8703C41.0393 31.5629 39.3318 31.0713 38.3527 29.5631C38.0973 29.1707 37.8962 28.7452 37.7023 28.3197C37.5297 27.9391 37.2695 27.5254 37.2341 27.1023C37.6432 27.0101 38.0571 27.1354 38.4615 27.1921" fill="#FC5203"/>
<path d="M23.8841 10.5005C23.0706 10.3799 22.7324 11.1553 22.5077 11.7486C21.2141 15.188 20.5401 18.8521 19.7975 22.4404C19.4971 23.8895 19.3316 25.4402 18.8089 26.8302C18.7451 27.0453 18.6694 27.2722 18.4896 27.407C18.291 27.5583 18.019 27.5535 17.7707 27.5417C16.723 27.4968 15.6753 27.4495 14.6277 27.4046C14.3935 27.3951 14.1357 27.3762 13.9607 27.2202C13.7574 27.0382 13.729 26.7356 13.7148 26.4638C13.509 22.5255 13.3033 18.5849 13.0975 14.6467C13.0786 14.2803 13.055 13.8997 12.8894 13.5735C12.6576 13.1196 12.1539 12.9045 11.6927 13.1811C11.3475 13.3891 11.2599 13.8075 11.1606 14.1716C9.75346 19.3343 8.58044 24.5632 7.64628 29.8323C7.476 30.7944 7.22295 31.8889 6.36447 32.3522C5.87019 32.6193 5.27895 32.6122 4.72082 32.5673C4.08227 32.5153 3.44846 32.4208 2.82175 32.2837C2.49065 32.2104 2.14064 32.1158 1.9136 31.8653C1.72913 31.662 1.65345 31.3878 1.58251 31.1254C-0.0351318 24.9958 -0.418256 18.5495 0.459146 12.2757C0.534825 11.732 0.631789 11.1623 0.974709 10.7345C1.65109 9.88821 2.9329 9.94731 4.00896 10.0844C4.4654 10.1435 4.96204 10.2215 5.26712 10.5643C5.69045 11.0371 5.55328 11.7699 5.42085 12.3916C5.03772 14.181 4.90292 16.0249 5.02117 17.8521C6.07121 15.9114 6.62461 13.7248 7.74797 11.8266C8.8737 9.9284 10.8413 8.26659 13.0408 8.4557C14.9611 8.62117 16.4913 10.1341 17.572 11.7297C18.5322 10.0206 19.6012 8.20749 21.3796 7.37777C22.4273 6.88844 23.6264 6.79861 24.7781 6.91208C25.6957 7.00191 26.6322 7.22648 27.3583 7.79381C28.4485 8.64245 28.8695 10.0797 29.1462 11.4318C30.5037 18.0767 29.8982 24.9083 29.21 31.5934C29.1036 32.6241 29.1438 33.5602 28.0347 33.9597C27.2211 34.2504 26.0434 34.3521 25.3055 33.8107C24.4281 33.1678 24.4517 31.8771 24.5463 30.7944C25.0643 24.8847 25.0335 18.8119 25.244 12.8502C25.2771 11.8881 25.1754 10.6943 23.8818 10.5005" fill="#FC5203"/>
<path d="M75.975 33.4849C76.3132 32.8561 76.0223 32.0122 75.5209 31.5039C74.8824 30.8562 73.8442 30.7073 73.2577 30.01C72.8012 29.4663 72.7232 28.7098 72.6688 28.003C72.1721 21.3629 72.4441 14.77 73.1442 8.15821C73.1725 7.89345 73.1915 7.59797 73.0259 7.38994C72.8958 7.2292 72.683 7.16301 72.482 7.11337C71.0417 6.75879 68.672 6.39238 68.3007 8.21967C67.324 13.0254 67.5841 17.9802 67.5226 22.8828C67.4919 25.1995 67.3973 27.5633 68.0689 29.7807C68.8825 32.466 71.0937 34.8441 74.0665 34.7992C74.0665 34.7992 75.2466 34.8276 75.9727 33.4825" fill="#FC5203"/>
<path d="M110.154 21.45C110.104 23.8092 110.057 25.7783 109.498 27.6907C108.652 30.5935 106.135 32.6549 103.172 32.9456C101.635 33.0969 100.091 33.1489 98.6219 32.6903C95.6326 31.7589 93.6792 29.7496 92.9886 26.5797C92.5629 24.6247 92.6031 22.6343 92.6102 20.651C92.6149 19.0649 92.5747 17.4574 93.0004 15.9185C94.5518 10.3114 100.247 8.29738 105.525 10.1601C107.185 10.744 108.297 11.8172 108.91 13.4766C109.541 15.1881 109.839 16.9728 110 18.7812C110.09 19.7977 110.118 20.8189 110.154 21.4524M105.27 22.8305C105.27 22.3861 105.27 22.0315 105.27 21.6793C105.26 19.15 105.163 14.5829 102.794 12.9779C101.708 12.2427 100.107 12.238 99.1635 13.1457C98.5534 13.7319 98.2885 14.5829 98.0898 15.4056C97.1769 19.1807 97.2337 23.1189 98.1466 26.8846C98.2956 27.5039 98.48 28.1398 98.8915 28.6268C99.5183 29.3714 100.547 29.6314 101.517 29.7142C102.198 29.7709 102.912 29.752 103.525 29.4518C104.56 28.9436 105.081 27.7403 105.213 26.5938C105.357 25.367 105.294 24.0645 105.267 22.8305" fill="#FC5203"/>
<path d="M86.2668 12.3425L86.1415 12.716C86.1036 12.8294 86.0753 12.9169 86.0398 13.0043C83.8167 18.6871 80.9669 24.2139 78.4695 28.9464C77.9705 29.8919 77.6749 30.8068 77.5614 31.7405C77.4692 32.5135 77.6181 33.1187 77.9918 33.4874C78.3371 33.8302 78.8598 33.9602 79.5409 33.8704C80.4679 33.7498 81.9082 33.6127 83.138 33.6056C85.2286 33.5938 87.35 33.634 89.4051 33.6742L90.564 33.6954C90.7863 33.7002 90.9187 33.6411 91.0748 33.4709C91.7843 32.6955 91.9948 31.7452 92.1059 30.9179C92.1698 30.4522 92.0728 29.9794 91.8032 29.4357C91.51 28.8471 90.4268 29.0315 89.8923 29.0102C88.8636 28.9653 87.8372 28.918 86.8084 28.8731L84.7272 28.7786C84.6255 28.7738 84.5239 28.7762 84.4032 28.7786H83.9681L84.065 28.5918C84.1809 28.3696 84.2921 28.1545 84.4009 27.9465C84.6208 27.5281 84.8266 27.1333 85.0229 26.7338C85.3634 26.0341 85.7063 25.3367 86.0493 24.6394C87.104 22.4883 88.1943 20.2638 89.2325 18.0607C89.871 16.7086 90.467 15.3068 91.0441 13.9523C91.2072 13.567 91.3728 13.1793 91.5383 12.794C91.9451 11.8484 92.3732 10.7374 92.3211 9.53889C92.2786 8.54606 92.0586 8.25767 91.2001 8.06856C90.2069 7.85108 89.4028 7.7447 88.6744 7.73998C86.7185 7.72106 84.4103 7.72106 82.14 7.83926C80.922 7.90308 79.7348 8.13474 78.4175 8.41132C77.63 8.57679 77.2137 8.97156 77.0695 9.69727C76.8779 10.6546 76.956 11.5222 77.3012 12.3472C77.533 12.8956 77.9942 13.1462 78.6304 13.0753C79.0963 13.0233 79.5598 12.9665 80.0233 12.9122C80.896 12.8081 81.7994 12.6994 82.691 12.6143C83.5116 12.5363 84.1029 12.4843 84.9614 12.4323C85.3279 12.4086 85.6969 12.385 86.0729 12.3614L86.2645 12.3472L86.2668 12.3425Z" fill="#FC5203"/>
<path fill-rule="evenodd" clip-rule="evenodd" d="M154.199 7.82466C156.32 9.81032 157.673 12.5264 157.945 15.3489L157.947 15.3465C158.222 18.169 157.41 21.0742 155.703 23.3956C153.686 26.1377 150.559 27.9673 147.314 29.258C141.246 31.6715 134.177 32.4634 127.81 30.648C123.483 34.3758 119.748 34.3687 119.748 34.3687C121.87 32.2743 122.939 30.369 123.466 29.1067C121.787 28.1966 119.538 26.4024 119.538 26.4024C116 24.0646 113.235 18.8711 114.377 14.7863C114.952 12.7368 116.43 11.0183 118.093 9.60703C124.067 4.54122 132.524 2.89123 140.515 3.24581C145.455 3.46566 150.67 4.52468 154.199 7.82466ZM147.222 10.8514C147.586 10.9271 147.965 11.0571 148.265 11.3076H148.26C148.712 11.6811 148.892 12.2508 148.991 12.7922C149.457 15.4444 148.745 18.2575 147.811 20.6214C147.799 20.6518 147.787 20.6819 147.775 20.7116L147.775 20.7123C147.646 21.0382 147.537 21.3166 147.153 21.3967C146.846 21.4605 146.437 21.4463 146.252 21.2407C146.032 20.9972 146.129 20.5575 146.274 20.1698C147.066 18.066 147.451 15.461 147.506 13.1231C147.518 12.7472 147.515 12.2792 147.014 12.1397C146.699 12.0523 146.591 12.3336 146.517 12.5534C146.299 13.2105 146.108 13.931 145.912 14.6732L145.912 14.6733L145.912 14.6733L145.912 14.6734L145.912 14.6734L145.912 14.6734C145.727 15.3704 145.538 16.0865 145.316 16.7871C145.285 16.8872 145.254 16.9884 145.223 17.09L145.223 17.0904C145.075 17.5817 144.923 18.0836 144.682 18.5222C144.642 18.605 144.597 18.6924 144.524 18.7397C144.441 18.7917 144.344 18.7846 144.254 18.7752C143.88 18.735 143.502 18.6948 143.119 18.6593C143.034 18.6522 142.939 18.6404 142.885 18.5766C142.821 18.5009 142.828 18.3828 142.837 18.274C142.979 16.7044 143.003 14.974 142.866 13.3619C142.854 13.2129 142.837 13.0569 142.764 12.9222C142.662 12.7354 142.45 12.6385 142.27 12.7378C142.143 12.8075 142.111 12.9533 142.081 13.0904L142.073 13.1255C141.593 15.1891 140.99 17.5625 140.416 19.5198C140.309 19.8791 140.165 20.2597 139.839 20.4157C139.652 20.5055 139.444 20.5055 139.247 20.4913C139.025 20.4748 138.803 20.4464 138.583 20.4039C138.467 20.3802 138.346 20.3519 138.268 20.2668C138.207 20.1982 138.183 20.1013 138.162 20.0091C137.658 17.858 137.365 14.7849 137.58 12.317C137.597 12.1019 137.623 11.8844 137.753 11.719C138.01 11.3951 138.545 11.4117 138.997 11.4613C139.188 11.4826 139.399 11.5109 139.538 11.641C139.732 11.8182 139.701 12.0995 139.664 12.343C139.557 13.0427 139.536 13.811 139.6 14.5864C139.801 14.1901 139.951 13.7751 140.097 13.3706C140.253 12.9354 140.406 12.5122 140.614 12.1374C141.021 11.4093 141.733 10.8561 142.634 10.972C143.424 11.0713 144.126 11.6693 144.599 12.3336C144.93 11.7024 145.257 11.0807 145.909 10.8632C146.295 10.7332 146.763 10.7545 147.222 10.8514ZM134.884 19.4937C134.882 19.7419 134.901 20.2312 135.239 20.425C135.374 20.5054 135.537 20.5267 135.695 20.5172C135.844 20.5078 135.991 20.4699 136.109 20.4227C136.44 20.2879 136.457 20.0208 136.471 19.7442C136.471 19.7136 136.473 19.6829 136.476 19.6522L136.476 19.652C136.62 17.4654 136.71 14.9739 136.123 12.8961C136 12.4516 135.818 11.9836 135.407 11.7354C135.172 11.5936 134.865 11.5203 134.47 11.5179C134.007 11.5132 133.609 11.5959 133.283 11.7661C132.732 12.0521 132.398 12.5533 132.089 13.175C131.604 12.6289 131.083 12.3784 130.554 12.4115C129.743 12.4587 129.085 13.1561 128.775 13.818C128.6 14.1915 128.489 14.591 128.392 14.9786C128.376 15.0438 128.36 15.1094 128.344 15.1753L128.344 15.1755L128.343 15.1759C128.308 15.3201 128.273 15.4655 128.234 15.6098C128.163 15.1323 128.156 14.6477 128.212 14.1726L128.214 14.1586C128.238 13.958 128.272 13.6677 128.094 13.5107C127.963 13.3956 127.769 13.406 127.635 13.4132L127.624 13.4137C127.236 13.4397 126.81 13.5154 126.592 13.8676C126.484 14.0449 126.465 14.2435 126.458 14.4491C126.375 16.5506 127.056 18.7798 128.141 20.4699C128.186 20.5409 128.248 20.6331 128.342 20.6969C128.456 20.7725 128.584 20.7843 128.695 20.7891C128.889 20.7985 129.083 20.7938 129.272 20.7796C129.449 20.7654 129.631 20.7394 129.761 20.6283C129.988 20.4392 129.97 20.0941 129.939 19.7702C129.778 18.1533 129.825 16.2433 130.128 14.4515C130.128 14.442 130.13 14.4302 130.133 14.4208C130.149 14.3144 130.168 14.2127 130.237 14.1584C130.279 14.1253 130.324 14.1111 130.369 14.1182C130.421 14.1253 130.471 14.1607 130.506 14.2127C130.56 14.2964 130.577 14.4099 130.593 14.5193L130.594 14.5248C130.785 15.8391 131.053 17.2101 131.355 18.4772C131.374 18.5599 131.407 18.697 131.519 18.7703C131.613 18.8341 131.722 18.827 131.793 18.82C132.098 18.7977 132.405 18.7775 132.71 18.7575L132.71 18.7575L132.711 18.7575L132.711 18.7575L132.767 18.7538L132.768 18.7537C132.843 18.749 132.959 18.7418 133.039 18.6639C133.106 18.5977 133.124 18.5056 133.136 18.4228C133.209 18.0819 133.226 17.7106 133.242 17.3461L133.243 17.3402L133.243 17.3297L133.243 17.3295C133.25 17.1911 133.257 17.0506 133.269 16.9123L133.272 16.8785C133.282 16.7476 133.293 16.6148 133.307 16.4821C133.403 15.3852 133.538 14.2293 133.867 13.2034C133.945 12.9599 134.028 12.8157 134.208 12.8275C134.496 12.844 134.555 13.0332 134.626 13.4705C134.811 14.591 134.91 17.2314 134.879 19.4937H134.884ZM125.8 21.1171C125.48 20.9848 125.353 20.5947 125.308 20.3985V20.4009C124.875 18.5121 124.35 16.2215 124.274 15.9544C124.199 15.6873 124.128 15.5502 123.972 15.5738C123.884 15.5857 123.839 15.6589 123.808 15.8693C123.688 16.6872 123.733 17.5311 123.813 18.3301C123.819 18.382 123.824 18.434 123.83 18.4859L123.83 18.4861L123.83 18.4864C123.835 18.5383 123.84 18.5902 123.846 18.6422C123.853 18.7174 123.864 18.7939 123.875 18.8708C123.879 18.8978 123.883 18.9248 123.886 18.9518L123.901 19.0558L123.901 19.0558L123.901 19.0558C123.935 19.2897 123.97 19.5271 123.972 19.7555L123.972 19.7618C123.974 19.8084 123.979 19.8932 123.938 19.9565C123.891 20.0298 123.808 20.0463 123.754 20.0558C123.536 20.0959 123.324 20.1361 123.111 20.1787L123.11 20.1789C123.058 20.1883 122.982 20.202 122.903 20.1574C122.808 20.103 122.765 19.9967 122.742 19.9328C122.389 19.0251 122.07 18.089 121.796 17.1505C121.775 17.0749 121.751 16.9945 121.711 16.9425C121.689 16.9142 121.661 16.8952 121.635 16.8952C121.614 16.8952 121.595 16.9047 121.578 16.926C121.553 16.957 121.554 17.0132 121.554 17.0742L121.555 17.1009V17.1245C121.585 18.4436 121.763 19.7461 122.011 20.9824C122.061 21.2353 122.106 21.519 121.957 21.6939C121.869 21.7956 121.744 21.8287 121.621 21.85C121.493 21.8712 121.363 21.883 121.233 21.883C121.15 21.883 121.063 21.876 120.982 21.8169C120.916 21.7681 120.874 21.6965 120.842 21.641L120.836 21.6301C120.093 20.3087 119.57 18.8336 119.268 17.3444C119.239 17.2002 119.213 17.0465 119.251 16.9047C119.324 16.6258 119.58 16.5407 119.826 16.4981L119.83 16.4973C119.916 16.4831 120.043 16.4618 120.152 16.5454C120.301 16.6593 120.322 16.8851 120.336 17.0387L120.337 17.0465C120.365 17.3373 120.417 17.6233 120.49 17.9046C120.495 17.8102 120.497 17.7135 120.5 17.619L120.5 17.6189L120.5 17.6115C120.509 17.3278 120.521 17.0324 120.578 16.7463C120.675 16.2334 120.996 15.6377 121.531 15.5266C121.869 15.458 122.233 15.6022 122.6 15.9544C122.709 15.5526 122.886 15.0656 123.25 14.7607C123.461 14.5834 123.733 14.4675 124.057 14.4179C124.333 14.3753 124.497 14.3753 124.669 14.4675C124.97 14.6283 125.156 15.0278 125.296 15.3564C125.771 16.4789 126.122 18.2058 126.437 19.7576C126.478 19.9606 126.519 20.1607 126.559 20.356C126.564 20.3796 126.571 20.4033 126.578 20.4269L126.58 20.4351C126.639 20.6456 126.703 20.8756 126.478 21.025C126.403 21.077 126.299 21.1242 126.185 21.1479C126.062 21.1715 125.927 21.1715 125.8 21.1171ZM150.474 19.7461C150.334 19.6847 150.072 19.6398 149.913 19.6658C149.506 19.7296 149.334 20.2355 149.223 20.6137C149.142 20.8903 149.057 21.1645 148.972 21.434C148.868 21.7602 148.889 21.9847 149.197 22.1124C149.363 22.1817 149.713 22.2074 149.972 22.2264H149.972C150.049 22.232 150.118 22.237 150.171 22.2424C150.308 22.2566 150.448 22.259 150.58 22.2164C150.855 22.1289 150.956 21.8476 151.02 21.5711C151.06 21.3961 151.096 21.2188 151.126 21.0416C151.15 20.9021 151.171 20.765 151.19 20.6255C151.262 20.0896 150.908 19.9372 150.56 19.7871C150.53 19.7743 150.501 19.7615 150.471 19.7485L150.474 19.7461ZM152.517 10.9955C152.694 11.0546 152.879 11.1468 152.961 11.3099V11.3122C153.042 11.4682 153.009 11.6503 152.976 11.8157C152.898 12.1916 152.824 12.5651 152.751 12.9409C152.695 13.2279 152.639 13.5152 152.583 13.8025C152.343 15.0372 152.102 16.2741 151.826 17.5032C151.722 17.9666 151.611 18.4275 151.455 18.8719C151.4 19.0209 151.33 19.1816 151.209 19.2336C151.124 19.2691 151.036 19.2431 150.953 19.2147C150.888 19.1916 150.794 19.1708 150.69 19.1478C150.442 19.0929 150.137 19.0253 150.017 18.8838C149.87 18.7136 149.892 18.4772 149.937 18.2337C150.31 16.2102 150.554 14.1134 150.603 12.123C150.604 12.0813 150.605 12.0399 150.606 11.9987C150.609 11.9183 150.611 11.8387 150.611 11.759C150.618 11.4612 150.629 11.0451 150.925 10.9104C151.086 10.8347 151.358 10.8513 151.549 10.8631C151.779 10.8773 152.292 10.9198 152.517 10.9955Z" fill="#FC5203"/>
</svg>
