<svg width="48" height="48" viewBox="0 0 48 48" fill="none" xmlns="http://www.w3.org/2000/svg">
<path fill-rule="evenodd" clip-rule="evenodd" d="M43.7231 12.045C46.0372 14.211 47.5128 17.1738 47.8095 20.2527L47.812 20.2501C48.1113 23.3289 47.2264 26.498 45.3638 29.0302C43.1633 32.0214 39.7529 34.0172 36.2134 35.4251C29.5937 38.0578 21.8828 38.9217 14.9381 36.9413C10.2171 41.0077 6.14363 41 6.14363 41C8.45768 38.7154 9.62373 36.637 10.199 35.2601C8.36739 34.2673 5.91403 32.3102 5.91403 32.3102C2.0547 29.7599 -0.961054 24.0948 0.284974 19.639C0.911858 17.4033 2.52421 15.5287 4.33779 13.9893C10.8543 8.46336 20.0795 6.66351 28.7966 7.0503C34.1857 7.2901 39.8741 8.44531 43.7231 12.045ZM36.1128 15.3465C36.5101 15.4291 36.9228 15.5709 37.2505 15.8442H37.2453C37.7381 16.2516 37.9341 16.8731 38.0425 17.4636C38.5507 20.3567 37.7742 23.4253 36.7552 26.0038L36.7348 26.0548L36.7158 26.1031C36.5757 26.4586 36.4562 26.7622 36.038 26.8496C35.7026 26.9192 35.2563 26.9038 35.0551 26.6794C34.8152 26.4138 34.9209 25.9342 35.0783 25.5113C35.9425 23.2164 36.363 20.3748 36.4224 17.8246C36.4353 17.4146 36.4327 16.904 35.8858 16.7519C35.5427 16.6565 35.424 16.9633 35.344 17.2031C35.1059 17.9198 34.898 18.7058 34.6838 19.5153L34.6838 19.5154L34.6838 19.5154L34.6837 19.5155L34.6837 19.5158C34.4825 20.2761 34.2759 21.0572 34.0335 21.8214C33.9996 21.93 33.9664 22.0398 33.9331 22.1501L33.9329 22.1509L33.9327 22.1515L33.9325 22.1522C33.7705 22.6881 33.605 23.2356 33.3421 23.7141C33.2983 23.8043 33.2492 23.8997 33.1693 23.9513C33.079 24.008 32.9732 24.0003 32.8752 23.99C32.4676 23.9461 32.0548 23.9023 31.6369 23.8636C31.544 23.8559 31.4408 23.843 31.3815 23.7734C31.3118 23.6909 31.3196 23.5619 31.3299 23.4433C31.4847 21.7311 31.5105 19.8436 31.3609 18.085C31.348 17.9225 31.3299 17.7524 31.2499 17.6054C31.139 17.4017 30.9068 17.296 30.7108 17.4043C30.573 17.4802 30.538 17.6393 30.5051 17.7889L30.4966 17.8271C29.9729 20.0782 29.3151 22.6672 28.6882 24.8022C28.5721 25.1942 28.4148 25.6093 28.0588 25.7795C27.8549 25.8775 27.6279 25.8775 27.4138 25.862C27.1713 25.844 26.9288 25.813 26.6889 25.7666C26.5625 25.7408 26.4309 25.7099 26.3458 25.6171C26.2787 25.5423 26.2529 25.4366 26.2297 25.336C25.6802 22.9895 25.3603 19.6373 25.5951 16.9453C25.6131 16.7106 25.6415 16.4734 25.7834 16.2929C26.0646 15.9396 26.6476 15.9577 27.1404 16.0118C27.3493 16.035 27.5789 16.066 27.7311 16.2078C27.9427 16.4012 27.9091 16.708 27.8679 16.9736C27.7518 17.7369 27.7286 18.5749 27.7982 19.4207C28.0182 18.9884 28.1813 18.5358 28.3403 18.0945C28.5113 17.6198 28.6776 17.1582 28.9049 16.7493C29.3486 15.9551 30.1251 15.3517 31.108 15.478C31.9697 15.5863 32.7359 16.2387 33.2518 16.9633C33.613 16.2748 33.969 15.5967 34.681 15.3594C35.1015 15.2176 35.6123 15.2408 36.1128 15.3465ZM22.6539 24.7751C22.6513 25.0459 22.6719 25.5797 23.0409 25.7911C23.1879 25.8788 23.3659 25.902 23.5387 25.8917C23.7013 25.8814 23.8612 25.8401 23.9902 25.7885C24.3514 25.6416 24.3694 25.3502 24.3849 25.0485C24.3849 25.015 24.3875 24.9816 24.39 24.9481L24.3901 24.9479C24.5474 22.5627 24.6455 19.8449 24.0057 17.5783C23.8715 17.0935 23.6729 16.583 23.224 16.3122C22.9686 16.1575 22.6332 16.0776 22.2024 16.075C21.6968 16.0698 21.2634 16.1601 20.9074 16.3457C20.3063 16.6577 19.9425 17.2044 19.6046 17.8826C19.0757 17.2869 18.5082 17.0136 17.9303 17.0497C17.0455 17.1013 16.3283 17.8619 15.9903 18.5839C15.7994 18.9914 15.6782 19.4271 15.5724 19.85C15.5546 19.9213 15.537 19.9931 15.5194 20.0652L15.5194 20.0653L15.5193 20.0653L15.5193 20.0653C15.4808 20.2226 15.442 20.3812 15.3996 20.5385C15.3222 20.0176 15.3144 19.489 15.3764 18.9707L15.3782 18.9555C15.404 18.7367 15.4415 18.4201 15.2474 18.2487C15.1043 18.1233 14.8928 18.1345 14.746 18.1424L14.734 18.143C14.3109 18.1714 13.8466 18.2539 13.6092 18.6381C13.4906 18.8315 13.4699 19.0481 13.4622 19.2724C13.3719 21.5648 14.1149 23.9964 15.299 25.8401C15.348 25.9175 15.415 26.018 15.5182 26.0876C15.6421 26.1702 15.7814 26.1831 15.9026 26.1882C16.1142 26.1985 16.3257 26.1934 16.5321 26.1779C16.7256 26.1624 16.9242 26.1341 17.0661 26.0129C17.3138 25.8066 17.2931 25.4301 17.2596 25.0768C17.0842 23.3131 17.1358 21.2296 17.466 19.275C17.466 19.2647 17.4685 19.2518 17.4711 19.2415C17.4892 19.1255 17.5098 19.0146 17.5846 18.9553C17.6311 18.9192 17.6801 18.9037 17.7291 18.9114C17.7859 18.9192 17.84 18.9578 17.8787 19.0146C17.9371 19.1059 17.9555 19.2296 17.9733 19.349L17.9742 19.3549C18.1831 20.7886 18.4747 22.2842 18.8049 23.6664C18.8255 23.7566 18.8616 23.9062 18.9829 23.9861C19.0861 24.0557 19.2047 24.048 19.2821 24.0402C19.6151 24.016 19.9503 23.994 20.2835 23.9721L20.345 23.968L20.3455 23.968C20.4281 23.9629 20.5541 23.955 20.6417 23.8701C20.7139 23.7979 20.7345 23.6973 20.7474 23.607C20.827 23.2352 20.8453 22.8301 20.8632 22.4325L20.8635 22.426L20.8641 22.4147V22.4146C20.8716 22.2636 20.8793 22.1102 20.8919 21.9593L20.895 21.9225C20.9069 21.7797 20.9189 21.6349 20.9332 21.49C21.0389 20.2936 21.186 19.0326 21.5446 17.9135C21.6297 17.6479 21.72 17.4906 21.9161 17.5035C22.2308 17.5216 22.2953 17.7279 22.3727 18.2049C22.5739 19.4271 22.6823 22.3074 22.6487 24.7751H22.6539ZM12.7448 26.5446C12.3965 26.4002 12.2572 25.9747 12.2082 25.7607V25.7633C11.7361 23.703 11.1634 21.2043 11.0809 20.9129C10.9983 20.6216 10.9209 20.472 10.7506 20.4978C10.6552 20.5107 10.6062 20.5906 10.5726 20.8201C10.4411 21.7123 10.4901 22.6329 10.5778 23.5044C10.5843 23.5612 10.5901 23.6179 10.5959 23.6746C10.6017 23.7313 10.6075 23.7881 10.6139 23.8448C10.6216 23.9269 10.6334 24.0104 10.6454 24.0942L10.6454 24.0943C10.6484 24.1157 10.6515 24.1372 10.6545 24.1586C10.6556 24.1666 10.6567 24.1746 10.6578 24.1826L10.6741 24.296C10.711 24.5511 10.7484 24.8101 10.7506 25.0593L10.751 25.0662C10.7538 25.117 10.7589 25.2095 10.7145 25.2785C10.6629 25.3584 10.5726 25.3765 10.5133 25.3868C10.276 25.4306 10.0438 25.4745 9.81161 25.5209L9.8104 25.5211C9.75368 25.5314 9.67168 25.5463 9.58459 25.4977C9.4814 25.4384 9.43496 25.3223 9.40917 25.2527C9.02478 24.2625 8.67651 23.2414 8.37726 22.2177C8.35404 22.1352 8.32825 22.0475 8.28439 21.9908C8.26117 21.9599 8.23021 21.9392 8.20184 21.9392C8.17862 21.9392 8.15798 21.9495 8.13993 21.9727C8.11287 22.0065 8.11339 22.0679 8.11395 22.1345L8.11412 22.1636V22.1893C8.14765 23.6282 8.34114 25.049 8.61201 26.3976C8.66619 26.6735 8.71521 26.9829 8.55268 27.1738C8.45723 27.2846 8.32051 27.3207 8.18636 27.3439C8.04705 27.3672 7.90516 27.38 7.76327 27.38C7.67298 27.38 7.57753 27.3723 7.48982 27.3078C7.41725 27.2547 7.3719 27.1765 7.33676 27.116L7.32987 27.1041C6.51983 25.6627 5.9497 24.0537 5.61949 22.4292C5.58853 22.2719 5.56015 22.1043 5.60143 21.9495C5.6814 21.6453 5.96002 21.5524 6.22832 21.506L6.23342 21.5052C6.32633 21.4897 6.46527 21.4664 6.58432 21.5576C6.74664 21.6818 6.76932 21.9282 6.78475 22.0957L6.78554 22.1043C6.8165 22.4214 6.87326 22.7334 6.95323 23.0403C6.95826 22.9372 6.96083 22.8317 6.96335 22.7285L6.96354 22.7205C6.97386 22.4111 6.98677 22.0888 7.04868 21.7768C7.15445 21.2172 7.5053 20.5674 8.08833 20.4462C8.45723 20.3714 8.85452 20.5287 9.25439 20.9129C9.37306 20.4746 9.56654 19.9434 9.96382 19.6108C10.1934 19.4174 10.4901 19.291 10.8435 19.2369C11.1454 19.1904 11.3234 19.1904 11.5117 19.291C11.8393 19.4664 12.0431 19.9021 12.1953 20.2606C12.7132 21.485 13.0958 23.3688 13.4397 25.0615C13.4847 25.283 13.529 25.5012 13.5729 25.7143C13.5781 25.7401 13.5858 25.7659 13.5935 25.7916L13.596 25.8006C13.6599 26.0302 13.7297 26.2811 13.4852 26.444C13.4026 26.5007 13.2891 26.5523 13.1653 26.5781C13.0312 26.6039 12.8841 26.6039 12.7448 26.5446ZM39.6599 25.0484C39.5077 24.9814 39.2214 24.9324 39.0485 24.9607C38.6048 25.0304 38.4165 25.5822 38.2952 25.9947C38.2075 26.2964 38.1146 26.5956 38.0218 26.8895C37.9082 27.2454 37.9315 27.4903 38.2668 27.6296C38.448 27.7052 38.8304 27.7332 39.1129 27.7539C39.1965 27.76 39.2714 27.7655 39.3297 27.7714C39.4793 27.7869 39.6315 27.7894 39.776 27.743C40.0753 27.6476 40.1862 27.3408 40.2558 27.0391C40.2997 26.8483 40.3384 26.6549 40.3719 26.4615C40.3977 26.3093 40.4209 26.1598 40.4416 26.0076C40.52 25.4231 40.1341 25.2568 39.754 25.093C39.7336 25.0842 39.7131 25.0754 39.6928 25.0665C39.6809 25.0614 39.6691 25.0562 39.6573 25.051L39.6599 25.0484ZM41.8884 15.5042C42.0819 15.5687 42.2831 15.6693 42.3734 15.8472V15.8498C42.4611 16.02 42.425 16.2185 42.3889 16.399C42.3038 16.809 42.2238 17.2164 42.1438 17.6264C42.0824 17.9395 42.0215 18.2529 41.9606 18.5664C41.6988 19.9131 41.4365 21.2623 41.1351 22.6031C41.0216 23.1085 40.9004 23.6113 40.7301 24.0961C40.6708 24.2586 40.5934 24.4339 40.4618 24.4906C40.3689 24.5293 40.2735 24.5009 40.1832 24.47C40.1115 24.4448 40.0091 24.4222 39.8957 24.397C39.6255 24.3372 39.2924 24.2634 39.1616 24.109C39.0017 23.9233 39.0249 23.6655 39.0739 23.3999C39.4815 21.1926 39.7472 18.9054 39.8014 16.7342C39.8023 16.6888 39.8034 16.6436 39.8046 16.5986C39.8069 16.511 39.8091 16.4241 39.8091 16.3371C39.8169 16.0122 39.8298 15.5584 40.1522 15.4114C40.3276 15.3289 40.6243 15.347 40.8333 15.3598C41.0835 15.3753 41.6433 15.4217 41.8884 15.5042Z" fill="#FC5203"/>
</svg>
