<svg width="48" height="34" viewBox="0 0 48 34" fill="none" xmlns="http://www.w3.org/2000/svg">
<path fill-rule="evenodd" clip-rule="evenodd" d="M43.7885 5.04502C46.1026 7.21104 47.5782 10.1738 47.8749 13.2527L47.8775 13.2501C48.1767 16.3289 47.2919 19.498 45.4293 22.0302C43.2287 25.0214 39.8183 27.0172 36.2788 28.4251C29.6592 31.0578 21.9482 31.9217 15.0035 29.9413C10.2825 34.0077 6.20906 34 6.20906 34C8.52311 31.7154 9.68916 29.637 10.2645 28.2601C8.43282 27.2673 5.97946 25.3102 5.97946 25.3102C2.12013 22.7599 -0.895624 17.0948 0.350404 12.639C0.977287 10.4033 2.58964 8.5287 4.40322 6.98928C10.9197 1.46336 20.145 -0.336493 28.862 0.0502952C34.2511 0.290104 39.9395 1.44531 43.7885 5.04502ZM36.1782 8.34654C36.5755 8.42905 36.9883 8.57088 37.3159 8.84421H37.3107C37.8035 9.25162 37.9995 9.87306 38.1079 10.4636C38.6161 13.3567 37.8396 16.4253 36.8206 19.0038L36.8002 19.0548L36.7812 19.1031C36.6412 19.4586 36.5216 19.7622 36.1034 19.8496C35.768 19.9192 35.3217 19.9038 35.1205 19.6794C34.8806 19.4138 34.9864 18.9342 35.1437 18.5113C36.008 16.2164 36.4285 13.3748 36.4878 10.8246C36.5007 10.4146 36.4981 9.90401 35.9512 9.75187C35.6081 9.65646 35.4894 9.96331 35.4095 10.2031C35.1713 10.9198 34.9634 11.7058 34.7492 12.5153L34.7492 12.5154L34.7492 12.5154L34.7492 12.5155L34.7491 12.5158C34.548 13.2761 34.3413 14.0572 34.0989 14.8214C34.0651 14.93 34.0319 15.0398 33.9985 15.1501L33.9983 15.1509L33.9981 15.1515L33.9979 15.1522C33.8359 15.6881 33.6704 16.2356 33.4076 16.7141C33.3637 16.8043 33.3147 16.8997 33.2347 16.9513C33.1444 17.008 33.0387 17.0003 32.9406 16.99C32.533 16.9461 32.1202 16.9023 31.7023 16.8636C31.6094 16.8559 31.5063 16.843 31.4469 16.7734C31.3773 16.6909 31.385 16.5619 31.3953 16.4433C31.5501 14.7311 31.5759 12.8436 31.4263 11.085C31.4134 10.9225 31.3953 10.7524 31.3154 10.6054C31.2044 10.4017 30.9723 10.296 30.7762 10.4043C30.6384 10.4802 30.6034 10.6393 30.5706 10.7889L30.5621 10.8271C30.0384 13.0782 29.3805 15.6672 28.7536 17.8022C28.6376 18.1942 28.4802 18.6093 28.1242 18.7795C27.9204 18.8775 27.6934 18.8775 27.4792 18.862C27.2367 18.844 26.9942 18.813 26.7543 18.7666C26.6279 18.7408 26.4964 18.7099 26.4112 18.6171C26.3442 18.5423 26.3184 18.4366 26.2951 18.336C25.7456 15.9895 25.4257 12.6373 25.6605 9.94526C25.6786 9.71061 25.7069 9.47338 25.8488 9.29288C26.13 8.93961 26.713 8.95766 27.2058 9.01181C27.4147 9.03502 27.6444 9.06596 27.7966 9.20779C28.0081 9.40118 27.9746 9.70803 27.9333 9.97363C27.8172 10.7369 27.794 11.5749 27.8636 12.4207C28.0836 11.9884 28.2467 11.5358 28.4057 11.0945C28.5768 10.6198 28.7431 10.1582 28.9704 9.74929C29.4141 8.95508 30.1906 8.35169 31.1735 8.47805C32.0351 8.58635 32.8013 9.23873 33.3173 9.96331C33.6784 9.27483 34.0344 8.59666 34.7465 8.35943C35.167 8.21761 35.6778 8.24082 36.1782 8.34654ZM22.7193 17.7751C22.7167 18.0459 22.7374 18.5797 23.1063 18.7911C23.2533 18.8788 23.4313 18.902 23.6042 18.8917C23.7667 18.8814 23.9266 18.8401 24.0556 18.7885C24.4168 18.6416 24.4349 18.3502 24.4503 18.0485C24.4503 18.015 24.4529 17.9816 24.4555 17.9481L24.4555 17.9479C24.6129 15.5627 24.7109 12.8449 24.0711 10.5783C23.937 10.0935 23.7383 9.58296 23.2894 9.31221C23.034 9.1575 22.6987 9.07756 22.2679 9.07498C21.7622 9.06982 21.3288 9.16008 20.9728 9.34573C20.3717 9.65774 20.008 10.2044 19.67 10.8826C19.1412 10.2869 18.5736 10.0136 17.9958 10.0497C17.1109 10.1013 16.3937 10.8619 16.0558 11.5839C15.8649 11.9914 15.7436 12.4271 15.6378 12.85C15.62 12.9213 15.6024 12.9931 15.5848 13.0652L15.5848 13.0653L15.5848 13.0653L15.5848 13.0653C15.5463 13.2226 15.5074 13.3812 15.465 13.5385C15.3876 13.0176 15.3799 12.489 15.4418 11.9707L15.4436 11.9555C15.4695 11.7367 15.5069 11.4201 15.3128 11.2487C15.1697 11.1233 14.9582 11.1345 14.8114 11.1424L14.7994 11.143C14.3763 11.1714 13.912 11.2539 13.6747 11.6381C13.556 11.8315 13.5353 12.0481 13.5276 12.2724C13.4373 14.5648 14.1803 16.9964 15.3644 18.8401C15.4134 18.9175 15.4805 19.018 15.5837 19.0876C15.7075 19.1702 15.8468 19.1831 15.9681 19.1882C16.1796 19.1985 16.3911 19.1934 16.5975 19.1779C16.791 19.1624 16.9896 19.1341 17.1315 19.0129C17.3792 18.8066 17.3585 18.4301 17.325 18.0768C17.1496 16.3131 17.2012 14.2296 17.5314 12.275C17.5314 12.2647 17.534 12.2518 17.5366 12.2415C17.5546 12.1255 17.5753 12.0146 17.6501 11.9553C17.6965 11.9192 17.7455 11.9037 17.7945 11.9114C17.8513 11.9192 17.9055 11.9578 17.9442 12.0146C18.0025 12.1059 18.021 12.2296 18.0387 12.349L18.0396 12.3549C18.2486 13.7886 18.5401 15.2842 18.8703 16.6664C18.8909 16.7566 18.927 16.9062 19.0483 16.9861C19.1515 17.0557 19.2702 17.048 19.3476 17.0402C19.6805 17.016 20.0157 16.994 20.3489 16.9721L20.4104 16.968L20.4109 16.968C20.4935 16.9629 20.6195 16.955 20.7071 16.8701C20.7793 16.7979 20.8 16.6973 20.8129 16.607C20.8924 16.2352 20.9107 15.8301 20.9287 15.4325L20.929 15.426L20.9295 15.4147V15.4146C20.9371 15.2636 20.9448 15.1102 20.9573 14.9593L20.9604 14.9225C20.9723 14.7797 20.9843 14.6349 20.9986 14.49C21.1044 13.2936 21.2514 12.0326 21.61 10.9135C21.6951 10.6479 21.7854 10.4906 21.9815 10.5035C22.2962 10.5216 22.3607 10.7279 22.4381 11.2049C22.6393 12.4271 22.7477 15.3074 22.7142 17.7751H22.7193ZM12.8102 19.5446C12.462 19.4002 12.3227 18.9747 12.2736 18.7607V18.7633C11.8015 16.703 11.2288 14.2043 11.1463 13.9129C11.0637 13.6216 10.9863 13.472 10.8161 13.4978C10.7206 13.5107 10.6716 13.5906 10.6381 13.8201C10.5065 14.7123 10.5555 15.6329 10.6432 16.5044C10.6497 16.5612 10.6555 16.6179 10.6613 16.6746C10.6671 16.7313 10.6729 16.7881 10.6793 16.8448C10.687 16.9269 10.6989 17.0104 10.7108 17.0942L10.7108 17.0943C10.7139 17.1157 10.7169 17.1372 10.7199 17.1586C10.721 17.1666 10.7221 17.1746 10.7232 17.1826L10.7395 17.296C10.7764 17.5511 10.8138 17.8101 10.8161 18.0593L10.8165 18.0662C10.8192 18.117 10.8243 18.2095 10.78 18.2785C10.7284 18.3584 10.6381 18.3765 10.5787 18.3868C10.3414 18.4306 10.1092 18.4745 9.87704 18.5209L9.87583 18.5211C9.81911 18.5314 9.73711 18.5463 9.65002 18.4977C9.54683 18.4384 9.50039 18.3223 9.4746 18.2527C9.09021 17.2625 8.74194 16.2414 8.44269 15.2177C8.41947 15.1352 8.39368 15.0475 8.34982 14.9908C8.3266 14.9599 8.29564 14.9392 8.26727 14.9392C8.24405 14.9392 8.22341 14.9495 8.20535 14.9727C8.1783 15.0065 8.17882 15.0679 8.17938 15.1345L8.17955 15.1636V15.1893C8.21308 16.6282 8.40656 18.049 8.67744 19.3976C8.73162 19.6735 8.78064 19.9829 8.61811 20.1738C8.52266 20.2846 8.38594 20.3207 8.25179 20.3439C8.11248 20.3672 7.97059 20.38 7.8287 20.38C7.73841 20.38 7.64296 20.3723 7.55525 20.3078C7.48268 20.2547 7.43733 20.1765 7.40218 20.116L7.3953 20.1041C6.58526 18.6627 6.01513 17.0537 5.68492 15.4292C5.65396 15.2719 5.62558 15.1043 5.66686 14.9495C5.74683 14.6453 6.02545 14.5524 6.29375 14.506L6.29885 14.5052C6.39176 14.4897 6.5307 14.4664 6.64975 14.5576C6.81207 14.6818 6.83475 14.9282 6.85018 15.0957L6.85097 15.1043C6.88193 15.4214 6.93869 15.7334 7.01866 16.0403C7.02369 15.9372 7.02626 15.8317 7.02878 15.7285L7.02897 15.7205C7.03929 15.4111 7.0522 15.0888 7.11411 14.7768C7.21988 14.2172 7.57073 13.5674 8.15376 13.4462C8.52266 13.3714 8.91995 13.5287 9.31982 13.9129C9.43849 13.4746 9.63197 12.9434 10.0293 12.6108C10.2589 12.4174 10.5555 12.291 10.9089 12.2369C11.2108 12.1904 11.3888 12.1904 11.5771 12.291C11.9047 12.4664 12.1085 12.9021 12.2607 13.2606C12.7786 14.485 13.1613 16.3688 13.5051 18.0615C13.5501 18.283 13.5945 18.5012 13.6383 18.7143C13.6435 18.7401 13.6512 18.7659 13.659 18.7916L13.6615 18.8006C13.7253 19.0302 13.7951 19.2811 13.5506 19.444C13.4681 19.5007 13.3546 19.5523 13.2307 19.5781C13.0966 19.6039 12.9495 19.6039 12.8102 19.5446ZM39.7253 18.0484C39.5731 17.9814 39.2868 17.9324 39.1139 17.9607C38.6702 18.0304 38.4819 18.5822 38.3606 18.9947C38.2729 19.2964 38.1801 19.5956 38.0872 19.8895C37.9737 20.2454 37.9969 20.4903 38.3323 20.6296C38.5134 20.7052 38.8958 20.7332 39.1783 20.7539C39.2619 20.76 39.3368 20.7655 39.3951 20.7714C39.5448 20.7869 39.697 20.7894 39.8414 20.743C40.1407 20.6476 40.2516 20.3408 40.3213 20.0391C40.3651 19.8483 40.4038 19.6549 40.4374 19.4615C40.4632 19.3093 40.4864 19.1598 40.507 19.0076C40.5855 18.4231 40.1995 18.2568 39.8195 18.093C39.799 18.0842 39.7786 18.0754 39.7582 18.0665C39.7464 18.0614 39.7345 18.0562 39.7228 18.051L39.7253 18.0484ZM41.9538 8.50425C42.1473 8.56871 42.3486 8.66928 42.4388 8.8472V8.84978C42.5266 9.01996 42.4904 9.21852 42.4543 9.39902C42.3692 9.80901 42.2892 10.2164 42.2092 10.6264C42.1479 10.9395 42.0869 11.2529 42.026 11.5664C41.7642 12.9131 41.5019 14.2623 41.2005 15.6031C41.087 16.1085 40.9658 16.6113 40.7955 17.0961C40.7362 17.2586 40.6588 17.4339 40.5272 17.4906C40.4344 17.5293 40.3389 17.5009 40.2486 17.47C40.1769 17.4448 40.0746 17.4222 39.9611 17.397C39.6909 17.3372 39.3579 17.2634 39.227 17.109C39.0671 16.9233 39.0903 16.6655 39.1393 16.3999C39.5469 14.1926 39.8126 11.9054 39.8668 9.73423C39.8677 9.68877 39.8689 9.64361 39.87 9.59864C39.8723 9.51097 39.8746 9.42405 39.8746 9.33713C39.8823 9.01223 39.8952 8.5584 40.2177 8.41142C40.3931 8.3289 40.6898 8.34695 40.8987 8.35985C41.149 8.37532 41.7088 8.42173 41.9538 8.50425Z" fill="#FC5203"/>
</svg>
