<svg width="168" height="168" viewBox="0 0 168 168" fill="none" xmlns="http://www.w3.org/2000/svg">
<path d="M127.4 56.8403C131.803 56.8403 136.106 55.5348 139.767 53.0888C143.428 50.6429 146.281 47.1663 147.966 43.0989C149.65 39.0314 150.091 34.5556 149.232 30.2376C148.373 25.9196 146.253 21.9532 143.14 18.8401C140.027 15.727 136.061 13.6069 131.743 12.748C127.425 11.8891 122.949 12.33 118.881 14.0148C114.814 15.6996 111.337 18.5527 108.891 22.2133C106.446 25.874 105.14 30.1777 105.14 34.5803C105.14 40.484 107.485 46.146 111.66 50.3205C115.834 54.4951 121.496 56.8403 127.4 56.8403Z" fill="#CDD5DF"/>
<path d="M127.4 12.3204C122.948 12.3098 118.596 13.6371 114.908 16.1302C111.22 18.6233 108.366 22.167 106.717 26.3018C105.068 30.4366 104.699 34.9717 105.658 39.3187C106.618 43.6657 108.861 47.6241 112.098 50.6804L143.5 19.2784C141.431 17.0838 138.936 15.3348 136.168 14.1383C133.399 12.9419 130.416 12.3233 127.4 12.3204Z" fill="#EEF2F6"/>
<path d="M91 50.6797H7C6.07174 50.6797 5.1815 50.3109 4.52513 49.6546C3.86875 48.9982 3.5 48.1079 3.5 47.1797V26.1797C3.5 25.2514 3.86875 24.3612 4.52513 23.7048C5.1815 23.0484 6.07174 22.6797 7 22.6797H91" fill="#CDD5DF"/>
<path d="M91 50.6797H7C6.07174 50.6797 5.1815 50.3109 4.52513 49.6546C3.86875 48.9982 3.5 48.1079 3.5 47.1797V26.1797C3.5 25.2514 3.86875 24.3612 4.52513 23.7048C5.1815 23.0484 6.07174 22.6797 7 22.6797H91" stroke="#121926" stroke-width="2" stroke-linecap="round" stroke-linejoin="round"/>
<path d="M127.4 56.8403C131.803 56.8403 136.106 55.5348 139.767 53.0888C143.428 50.6429 146.281 47.1663 147.966 43.0989C149.65 39.0314 150.091 34.5556 149.232 30.2376C148.373 25.9196 146.253 21.9532 143.14 18.8401C140.027 15.727 136.061 13.6069 131.743 12.748C127.425 11.8891 122.949 12.33 118.881 14.0148C114.814 15.6996 111.337 18.5527 108.891 22.2133C106.446 25.874 105.14 30.1777 105.14 34.5803C105.14 40.484 107.485 46.146 111.66 50.3205C115.834 54.4951 121.496 56.8403 127.4 56.8403Z" stroke="#121926" stroke-width="2" stroke-linecap="round" stroke-linejoin="round"/>
<path d="M143.143 50.3301L164.5 71.6871" stroke="#121926" stroke-width="2" stroke-linecap="round" stroke-linejoin="round"/>
<path d="M10.5 120.68C11.8845 120.68 13.2378 120.269 14.389 119.5C15.5401 118.731 16.4373 117.638 16.9672 116.358C17.497 115.079 17.6356 113.672 17.3655 112.314C17.0954 110.956 16.4287 109.709 15.4497 108.73C14.4708 107.751 13.2235 107.084 11.8656 106.814C10.5078 106.544 9.1003 106.683 7.82122 107.213C6.54213 107.742 5.44888 108.64 4.67971 109.791C3.91054 110.942 3.5 112.295 3.5 113.68C3.5 115.536 4.2375 117.317 5.55025 118.629C6.86301 119.942 8.64348 120.68 10.5 120.68Z" fill="#CDD5DF" stroke="#121926" stroke-width="2" stroke-linecap="round" stroke-linejoin="round"/>
<path d="M10.5 155.68C11.8845 155.68 13.2378 155.269 14.389 154.5C15.5401 153.731 16.4373 152.638 16.9672 151.358C17.497 150.079 17.6356 148.672 17.3655 147.314C17.0954 145.956 16.4287 144.709 15.4497 143.73C14.4708 142.751 13.2235 142.084 11.8656 141.814C10.5078 141.544 9.1003 141.683 7.82122 142.213C6.54213 142.742 5.44888 143.64 4.67971 144.791C3.91054 145.942 3.5 147.295 3.5 148.68C3.5 150.536 4.2375 152.317 5.55025 153.629C6.86301 154.942 8.64348 155.68 10.5 155.68Z" fill="#CDD5DF" stroke="#121926" stroke-width="2" stroke-linecap="round" stroke-linejoin="round"/>
<path d="M31.5 113.68H108.5" stroke="#121926" stroke-width="2" stroke-linecap="round" stroke-linejoin="round"/>
<path d="M10.5 85.6797C11.8845 85.6797 13.2378 85.2691 14.389 84.5C15.5401 83.7308 16.4373 82.6376 16.9672 81.3585C17.497 80.0794 17.6356 78.6719 17.3655 77.3141C17.0954 75.9562 16.4287 74.7089 15.4497 73.7299C14.4708 72.751 13.2235 72.0843 11.8656 71.8142C10.5078 71.5441 9.1003 71.6827 7.82122 72.2125C6.54213 72.7423 5.44888 73.6396 4.67971 74.7907C3.91054 75.9418 3.5 77.2952 3.5 78.6797C3.5 80.5362 4.2375 82.3167 5.55025 83.6294C6.86301 84.9422 8.64348 85.6797 10.5 85.6797Z" fill="#CDD5DF" stroke="#121926" stroke-width="2" stroke-linecap="round" stroke-linejoin="round"/>
<path d="M31.5 78.6797H108.5" stroke="#121926" stroke-width="2" stroke-linecap="round" stroke-linejoin="round"/>
<path d="M31.5 148.68H108.5" stroke="#121926" stroke-width="2" stroke-linecap="round" stroke-linejoin="round"/>
</svg>
