<svg width="24" height="24" viewBox="0 0 24 24" fill="none" xmlns="http://www.w3.org/2000/svg">
<g clip-path="url(#clip0_2991_3548)">
<path fill-rule="evenodd" clip-rule="evenodd" d="M0.101815 20.5687C-0.46002 22.6058 1.39422 24.4599 3.43126 23.8982C5.44807 23.3419 8.25137 22.5483 11.1215 21.6705C11.7144 21.4891 11.92 20.753 11.5933 20.226C11.0096 19.2847 10.6881 18.2739 10.6881 17.2176C10.6881 15.574 11.4665 14.0407 12.7996 12.7076C12.9376 12.5696 13.0775 12.4377 13.2195 12.3119C13.6139 11.9626 13.6802 11.3465 13.309 10.9726C13.2577 10.921 13.2063 10.8694 13.1546 10.8179C10.6672 8.33654 8.02639 6.26815 6.32791 5.56323L5.71059 5.36277C5.27688 5.2219 4.80842 5.44507 4.65051 5.87287C4.25976 6.93146 3.86234 8.08497 3.47021 9.27597C3.45489 9.32253 3.43956 9.36914 3.42423 9.41583C3.24927 9.94908 3.63643 10.5034 4.16664 10.6874C4.89026 10.9384 5.56661 11.3926 6.17263 11.9986C7.1197 12.9457 7.70513 14.0689 7.70513 15.3024C7.70513 16.5359 7.1197 17.659 6.17263 18.6062C5.25094 19.5278 4.16234 20.1077 2.96455 20.1374C2.45782 20.1501 1.96827 20.0633 1.50105 19.8924C0.949682 19.6908 0.27877 19.9277 0.122547 20.4936C0.1156 20.5188 0.108689 20.5438 0.101815 20.5687ZM6.22908 2.12321C5.99578 2.57796 6.23973 3.12519 6.72585 3.28306L7.07698 3.3971C7.10323 3.40563 7.12917 3.4151 7.15474 3.4255C9.30451 4.29982 12.2384 6.66711 14.773 9.19548C17.3074 11.7236 19.6869 14.6569 20.5941 16.818L20.808 17.3138C20.9988 17.7561 21.5181 17.9575 21.9454 17.7355C21.9948 17.7098 22.0433 17.6842 22.091 17.6587C22.6293 17.3707 23.1209 17.0595 23.4545 16.7259C24.1279 16.0524 24.0627 15.108 23.8651 14.383C23.6553 13.6138 23.2118 12.7484 22.6495 11.8646C21.5158 10.0833 19.7611 8.01514 17.873 6.12703C15.9848 4.2389 13.9167 2.48414 12.1354 1.35058C11.2516 0.788158 10.3862 0.344681 9.61697 0.134894C8.89203 -0.062819 7.94758 -0.127966 7.27411 0.545493C6.94047 0.879139 6.62928 1.37075 6.34123 1.90905C6.30403 1.97858 6.26664 2.04999 6.22908 2.12321ZM18.2086 19.3193C18.6646 19.1505 18.8813 18.6331 18.6888 18.1865L18.4827 17.7091C18.0646 16.7106 17.1821 15.3934 16.0268 13.9763C15.7615 13.6509 15.2928 13.5718 14.966 13.8353C14.7858 13.9806 14.6036 14.1444 14.42 14.328C13.3852 15.3628 12.9797 16.3454 12.9797 17.2176C12.9797 18.0898 13.3852 19.0725 14.42 20.1072C14.4404 20.1276 14.4607 20.1477 14.4811 20.1675C14.695 20.3769 15.0101 20.4357 15.2939 20.3409C16.3129 20.0002 17.2968 19.6572 18.2086 19.3193ZM1.28746 17.0847C1.1959 16.9985 1.14461 16.8717 1.17952 16.7509C1.5223 15.5648 1.89607 14.2989 2.28715 13.0173C2.32534 12.8921 2.44212 12.8105 2.57071 12.7861C3.11266 12.6831 3.77904 12.8458 4.55223 13.619C5.20104 14.2678 5.41356 14.8402 5.41356 15.3024C5.41356 15.7645 5.20104 16.3369 4.55223 16.9857C3.92021 17.6177 3.36055 17.8353 2.90758 17.8466C2.45895 17.8577 1.91117 17.6717 1.28746 17.0847Z" fill="#F27430"/>
<g clip-path="url(#clip1_2991_3548)">
<rect x="14" width="10" height="10" rx="4" fill="#FFEDE6"/>
<path d="M19.0002 0.833008C21.3013 0.833008 23.1668 2.69849 23.1668 4.99967C23.1668 7.30084 21.3013 9.16634 19.0002 9.16634C16.699 9.16634 14.8335 7.30084 14.8335 4.99967C14.8335 2.69849 16.699 0.833008 19.0002 0.833008ZM18.5835 1.69279C16.9392 1.89787 15.6668 3.29986 15.6668 4.99967C15.6668 6.69947 16.9393 8.10105 18.5835 8.30613V1.69279ZM19.4168 5.41634V8.30613C20.9245 8.11809 22.1186 6.92405 22.3066 5.41634H19.4168ZM19.4168 4.58301H22.3066C22.1186 3.0753 20.9245 1.88084 19.4168 1.69279V4.58301Z" fill="#F27430"/>
</g>
</g>
<defs>
<clipPath id="clip0_2991_3548">
<rect width="24" height="24" fill="white"/>
</clipPath>
<clipPath id="clip1_2991_3548">
<rect x="14" width="10" height="10" rx="4" fill="white"/>
</clipPath>
</defs>
</svg>
