<svg width="24" height="25" viewBox="0 0 24 25" fill="none" xmlns="http://www.w3.org/2000/svg">
<g clip-path="url(#clip0_1377_1543)">
<path d="M20.4998 0.500162H12.4998C12.1494 0.495026 11.8081 0.611949 11.5344 0.830888C11.2608 1.04983 11.0718 1.35715 10.9998 1.70016C10.9933 1.73672 10.9943 1.77424 11.0029 1.81038C11.0116 1.84651 11.0275 1.88048 11.0498 1.91016C11.0742 1.93938 11.1048 1.96267 11.1395 1.97826C11.1741 1.99386 11.2119 2.00135 11.2498 2.00016H17.4998C17.6988 2.00016 17.8895 2.07918 18.0302 2.21983C18.1708 2.36048 18.2498 2.55125 18.2498 2.75016C18.2498 2.94907 18.1708 3.13984 18.0302 3.28049C17.8895 3.42114 17.6988 3.50016 17.4998 3.50016H11.2498C11.1835 3.50016 11.12 3.5265 11.0731 3.57339C11.0262 3.62027 10.9998 3.68386 10.9998 3.75016V4.75016C10.9998 4.81647 11.0262 4.88005 11.0731 4.92694C11.12 4.97382 11.1835 5.00016 11.2498 5.00016H15.4998C15.6988 5.00016 15.8895 5.07918 16.0302 5.21983C16.1708 5.36048 16.2498 5.55125 16.2498 5.75016C16.2498 5.94907 16.1708 6.13984 16.0302 6.28049C15.8895 6.42114 15.6988 6.50016 15.4998 6.50016H11.2498C11.1835 6.50016 11.12 6.5265 11.0731 6.57339C11.0262 6.62027 10.9998 6.68386 10.9998 6.75016V7.75016C10.9998 7.81647 11.0262 7.88005 11.0731 7.92694C11.12 7.97382 11.1835 8.00016 11.2498 8.00016H11.4998C12.2955 8.00016 13.0586 8.31623 13.6212 8.87884C14.1838 9.44145 14.4998 10.2045 14.4998 11.0002V24.2202C14.4956 24.2554 14.4989 24.2912 14.5095 24.3251C14.5202 24.359 14.5379 24.3902 14.5616 24.4167C14.5852 24.4432 14.6142 24.4643 14.6467 24.4787C14.6792 24.4931 14.7143 24.5004 14.7498 24.5002H15.7498C15.8162 24.5002 15.8797 24.4738 15.9266 24.4269C15.9735 24.3801 15.9998 24.3165 15.9998 24.2502V21.5002C15.9998 21.2349 16.1052 20.9806 16.2927 20.7931C16.4803 20.6055 16.7346 20.5002 16.9998 20.5002H18.9998C19.2651 20.5002 19.5194 20.6055 19.707 20.7931C19.8945 20.9806 19.9998 21.2349 19.9998 21.5002V24.2502C19.9998 24.3165 20.0262 24.3801 20.0731 24.4269C20.12 24.4738 20.1835 24.5002 20.2498 24.5002H20.9998C21.2651 24.5002 21.5194 24.3948 21.707 24.2073C21.8945 24.0197 21.9998 23.7654 21.9998 23.5002V2.00016C21.9998 1.60234 21.8418 1.22081 21.5605 0.939502C21.2792 0.658198 20.8977 0.500162 20.4998 0.500162Z" fill="#FC5203"/>
<path d="M11.5 9.5H3.5C3.10218 9.5 2.72064 9.65804 2.43934 9.93934C2.15804 10.2206 2 10.6022 2 11V11.25C2 11.3163 2.02634 11.3799 2.07322 11.4268C2.12011 11.4737 2.1837 11.5 2.25 11.5H6.5C6.69891 11.5 6.88968 11.579 7.03033 11.7197C7.17098 11.8603 7.25 12.0511 7.25 12.25C7.25 12.4489 7.17098 12.6397 7.03033 12.7803C6.88968 12.921 6.69891 13 6.5 13H2.25C2.1837 13 2.12011 13.0263 2.07322 13.0732C2.02634 13.1201 2 13.1837 2 13.25V14.75C2 14.8163 2.02634 14.8799 2.07322 14.9268C2.12011 14.9737 2.1837 15 2.25 15H4.5C4.69891 15 4.88968 15.079 5.03033 15.2197C5.17098 15.3603 5.25 15.5511 5.25 15.75C5.25 15.9489 5.17098 16.1397 5.03033 16.2803C4.88968 16.421 4.69891 16.5 4.5 16.5H2.25C2.1837 16.5 2.12011 16.5263 2.07322 16.5732C2.02634 16.6201 2 16.6837 2 16.75V23.5C2 23.7652 2.10536 24.0196 2.29289 24.2071C2.48043 24.3946 2.73478 24.5 3 24.5H3.75C3.8163 24.5 3.87989 24.4737 3.92678 24.4268C3.97366 24.3799 4 24.3163 4 24.25V21.5C4 21.2348 4.10536 20.9804 4.29289 20.7929C4.48043 20.6054 4.73478 20.5 5 20.5H7C7.26522 20.5 7.51957 20.6054 7.70711 20.7929C7.89464 20.9804 8 21.2348 8 21.5V24.25C8 24.3163 8.02634 24.3799 8.07322 24.4268C8.12011 24.4737 8.1837 24.5 8.25 24.5H12.5C12.6326 24.5 12.7598 24.4473 12.8536 24.3536C12.9473 24.2598 13 24.1326 13 24V11C13 10.6022 12.842 10.2206 12.5607 9.93934C12.2794 9.65804 11.8978 9.5 11.5 9.5Z" fill="#FC5203"/>
</g>
<defs>
<clipPath id="clip0_1377_1543">
<rect width="24" height="24" fill="white" transform="translate(0 0.5)"/>
</clipPath>
</defs>
</svg>
