<svg width="24" height="24" viewBox="0 0 24 24" fill="none" xmlns="http://www.w3.org/2000/svg">
<g clip-path="url(#clip0_2537_12408)">
<g clip-path="url(#clip1_2537_12408)">
<path fill-rule="evenodd" clip-rule="evenodd" d="M12.3543 0.562174C12.3543 0.26302 12.1118 0.0205078 11.8127 0.0205078C11.5135 0.0205078 11.271 0.26302 11.271 0.562174C11.271 4.98377 11.3527 9.32252 11.3893 11.0413C11.4046 11.7647 11.9852 12.3452 12.7085 12.3606C14.4273 12.3971 18.7661 12.4788 23.1877 12.4788C23.4868 12.4788 23.7293 12.2363 23.7293 11.9372C23.7293 11.638 23.4868 11.3955 23.1877 11.3955C18.7773 11.3955 14.4474 11.314 12.7316 11.2775C12.5885 11.2744 12.4754 11.1614 12.4723 11.0183C12.4359 9.30245 12.3543 4.97253 12.3543 0.562174ZM17.6488 10.6553C17.8235 10.691 18.0449 10.7184 18.3127 10.7184C18.5805 10.7184 18.8018 10.691 18.9765 10.6553C19.343 10.5803 19.5314 10.2415 19.5314 9.90574V6.24967C19.5314 4.30496 19.508 3.10733 19.4927 2.53119C19.4847 2.23074 19.3195 1.92515 18.9875 1.84981C18.8171 1.81113 18.5939 1.78092 18.3127 1.78092C18.0315 1.78092 17.8083 1.81113 17.6378 1.84981C17.3058 1.92515 17.1406 2.23074 17.1326 2.53119C17.1173 3.10736 17.0939 4.30496 17.0939 6.24967V9.90574C17.0939 10.2415 17.2823 10.5803 17.6488 10.6553ZM21.6172 10.7017C21.7566 10.7117 21.919 10.7184 22.1043 10.7184C22.2897 10.7184 22.4521 10.7117 22.5915 10.7017C23.0361 10.6697 23.3231 10.2884 23.3231 9.86725V8.41634C23.3231 7.72379 23.3112 7.22002 23.2989 6.88245C23.2848 6.50003 23.0217 6.16664 22.619 6.13376C22.477 6.12217 22.3062 6.11426 22.1043 6.11426C21.9025 6.11426 21.7317 6.12217 21.5896 6.13376C21.1869 6.16664 20.9238 6.50003 20.9098 6.88245C20.8974 7.22002 20.8856 7.72379 20.8856 8.41634V9.86725C20.8856 10.2884 21.1726 10.6697 21.6172 10.7017ZM13.9408 10.6825C14.1001 10.7035 14.2936 10.7184 14.521 10.7184C14.7484 10.7184 14.9418 10.7035 15.1012 10.6825C15.5065 10.6293 15.7397 10.2691 15.7397 9.89314V7.33301C15.7397 6.03653 15.7213 5.18235 15.7064 4.70435C15.6958 4.36467 15.4863 4.04125 15.117 3.98735C14.9593 3.96436 14.7618 3.94759 14.521 3.94759C14.2802 3.94759 14.0827 3.96436 13.925 3.98735C13.5557 4.04125 13.3461 4.36467 13.3356 4.70435C13.3207 5.18235 13.3022 6.03653 13.3022 7.33301V9.89314C13.3022 10.2691 13.5355 10.6293 13.9408 10.6825Z" fill="#D1D5DB"/>
</g>
<path d="M13 14C12.7348 14 12.4804 14.1054 12.2929 14.2929C12.1054 14.4804 12 14.7348 12 15V18.5C12 18.6326 11.9473 18.7598 11.8536 18.8536C11.7598 18.9473 11.6326 19 11.5 19H2.5C2.36739 19 2.24021 18.9473 2.14645 18.8536C2.05268 18.7598 2 18.6326 2 18.5V4.5C2 4.36739 2.05268 4.24021 2.14645 4.14645C2.24021 4.05268 2.36739 4 2.5 4H9C9.13261 4 9.25979 3.94732 9.35355 3.85355C9.44732 3.75979 9.5 3.63261 9.5 3.5V0.5C9.5 0.367392 9.44732 0.240215 9.35355 0.146447C9.25979 0.0526784 9.13261 0 9 0L2.5 0C1.83696 0 1.20107 0.263392 0.732233 0.732233C0.263392 1.20107 0 1.83696 0 2.5L0 21.5C0 21.8283 0.0646644 22.1534 0.190301 22.4567C0.315938 22.76 0.500087 23.0356 0.732233 23.2678C0.964379 23.4999 1.23998 23.6841 1.54329 23.8097C1.84661 23.9353 2.1717 24 2.5 24H11.5C11.8283 24 12.1534 23.9353 12.4567 23.8097C12.76 23.6841 13.0356 23.4999 13.2678 23.2678C13.4999 23.0356 13.6841 22.76 13.8097 22.4567C13.9353 22.1534 14 21.8283 14 21.5V15C14 14.7348 13.8946 14.4804 13.7071 14.2929C13.5196 14.1054 13.2652 14 13 14Z" fill="#D1D5DB"/>
</g>
<defs>
<clipPath id="clip0_2537_12408">
<rect width="24" height="24" fill="white"/>
</clipPath>
<clipPath id="clip1_2537_12408">
<rect width="13" height="13" fill="white" transform="translate(11 -0.25)"/>
</clipPath>
</defs>
</svg>
