<svg width="24" height="24" viewBox="0 0 24 24" fill="none" xmlns="http://www.w3.org/2000/svg">
<g clip-path="url(#clip0_2863_6090)">
<path d="M17.5742 7.37418C17.9732 6.78124 18.293 6.13866 18.5254 5.46277C18.7911 4.67232 19.1552 3.91841 19.609 3.21875" stroke="#D1D5DB" stroke-linecap="round" stroke-linejoin="round"/>
<path d="M12.9297 0.536133V10.8193H23.2129" stroke="#D1D5DB" stroke-linecap="round" stroke-linejoin="round"/>
<path d="M15.5957 8.15332C15.5957 8.45635 15.7161 8.74697 15.9304 8.96124C16.1446 9.17552 16.4353 9.2959 16.7383 9.2959C17.0413 9.2959 17.3319 9.17552 17.5462 8.96124C17.7605 8.74697 17.8809 8.45635 17.8809 8.15332C17.8809 7.85029 17.7605 7.55967 17.5462 7.3454C17.3319 7.13112 17.0413 7.01074 16.7383 7.01074C16.4353 7.01074 16.1446 7.13112 15.9304 7.3454C15.7161 7.55967 15.5957 7.85029 15.5957 8.15332Z" stroke="#D1D5DB" stroke-linecap="round" stroke-linejoin="round"/>
<path d="M19.2388 2.37598C19.2388 2.67901 19.3591 2.96963 19.5734 3.1839C19.7877 3.39818 20.0783 3.51855 20.3813 3.51855C20.6844 3.51855 20.975 3.39818 21.1893 3.1839C21.4035 2.96963 21.5239 2.67901 21.5239 2.37598C21.5239 2.07295 21.4035 1.78233 21.1893 1.56805C20.975 1.35378 20.6844 1.2334 20.3813 1.2334C20.0783 1.2334 19.7877 1.35378 19.5734 1.56805C19.3591 1.78233 19.2388 2.07295 19.2388 2.37598Z" stroke="#D1D5DB" stroke-linecap="round" stroke-linejoin="round"/>
<path d="M21.082 1.47551C21.6408 0.894208 22.4067 0.55727 23.2128 0.538086" stroke="#D1D5DB" stroke-linecap="round" stroke-linejoin="round"/>
<path d="M12.9297 10.8193C14.0758 10.4558 15.13 9.84963 16.0207 9.04199" stroke="#D1D5DB" stroke-linecap="round" stroke-linejoin="round"/>
<path d="M13 14C12.7348 14 12.4804 14.1054 12.2929 14.2929C12.1054 14.4804 12 14.7348 12 15V18.5C12 18.6326 11.9473 18.7598 11.8536 18.8536C11.7598 18.9473 11.6326 19 11.5 19H2.5C2.36739 19 2.24021 18.9473 2.14645 18.8536C2.05268 18.7598 2 18.6326 2 18.5V4.5C2 4.36739 2.05268 4.24021 2.14645 4.14645C2.24021 4.05268 2.36739 4 2.5 4H9C9.13261 4 9.25979 3.94732 9.35355 3.85355C9.44732 3.75979 9.5 3.63261 9.5 3.5V0.5C9.5 0.367392 9.44732 0.240215 9.35355 0.146447C9.25979 0.0526784 9.13261 0 9 0L2.5 0C1.83696 0 1.20107 0.263392 0.732233 0.732233C0.263392 1.20107 0 1.83696 0 2.5L0 21.5C0 21.8283 0.0646644 22.1534 0.190301 22.4567C0.315938 22.76 0.500087 23.0356 0.732233 23.2678C0.964379 23.4999 1.23998 23.6841 1.54329 23.8097C1.84661 23.9353 2.1717 24 2.5 24H11.5C11.8283 24 12.1534 23.9353 12.4567 23.8097C12.76 23.6841 13.0356 23.4999 13.2678 23.2678C13.4999 23.0356 13.6841 22.76 13.8097 22.4567C13.9353 22.1534 14 21.8283 14 21.5V15C14 14.7348 13.8946 14.4804 13.7071 14.2929C13.5196 14.1054 13.2652 14 13 14Z" fill="#D1D5DB"/>
</g>
<defs>
<clipPath id="clip0_2863_6090">
<rect width="24" height="24" fill="white"/>
</clipPath>
</defs>
</svg>
