<svg width="24" height="24" viewBox="0 0 24 24" fill="none" xmlns="http://www.w3.org/2000/svg">
<g clip-path="url(#clip0_2646_1285)">
<g clip-path="url(#clip1_2646_1285)">
<path fill-rule="evenodd" clip-rule="evenodd" d="M12.3543 0.561869C12.3543 0.262715 12.1118 0.0202026 11.8127 0.0202026C11.5135 0.0202026 11.271 0.262715 11.271 0.561869C11.271 4.98347 11.3527 9.32222 11.3893 11.041C11.4046 11.7644 11.9852 12.3449 12.7085 12.3603C14.4273 12.3968 18.7661 12.4785 23.1877 12.4785C23.4868 12.4785 23.7293 12.236 23.7293 11.9369C23.7293 11.6377 23.4868 11.3952 23.1877 11.3952C18.7773 11.3952 14.4474 11.3137 12.7316 11.2772C12.5885 11.2741 12.4754 11.1611 12.4723 11.018C12.4359 9.30215 12.3543 4.97223 12.3543 0.561869ZM17.6488 10.655C17.8235 10.6907 18.0449 10.7181 18.3127 10.7181C18.5805 10.7181 18.8018 10.6907 18.9765 10.655C19.343 10.58 19.5314 10.2412 19.5314 9.90543V6.24937C19.5314 4.30465 19.508 3.10703 19.4927 2.53088C19.4847 2.23043 19.3195 1.92484 18.9875 1.8495C18.8171 1.81082 18.5939 1.78062 18.3127 1.78062C18.0315 1.78062 17.8083 1.81082 17.6378 1.8495C17.3058 1.92484 17.1406 2.23043 17.1326 2.53088C17.1173 3.10705 17.0939 4.30465 17.0939 6.24937V9.90543C17.0939 10.2412 17.2823 10.58 17.6488 10.655ZM21.6172 10.7014C21.7566 10.7114 21.919 10.7181 22.1043 10.7181C22.2897 10.7181 22.4521 10.7114 22.5915 10.7014C23.0361 10.6694 23.3231 10.2881 23.3231 9.86694V8.41604C23.3231 7.72349 23.3112 7.21971 23.2989 6.88214C23.2848 6.49973 23.0217 6.16633 22.619 6.13345C22.477 6.12186 22.3062 6.11395 22.1043 6.11395C21.9025 6.11395 21.7317 6.12186 21.5896 6.13345C21.1869 6.16633 20.9238 6.49973 20.9098 6.88214C20.8974 7.21971 20.8856 7.72349 20.8856 8.41604V9.86694C20.8856 10.2881 21.1726 10.6694 21.6172 10.7014ZM13.9408 10.6822C14.1001 10.7032 14.2936 10.7181 14.521 10.7181C14.7484 10.7181 14.9418 10.7032 15.1012 10.6822C15.5065 10.629 15.7397 10.2688 15.7397 9.89284V7.3327C15.7397 6.03622 15.7213 5.18204 15.7064 4.70405C15.6958 4.36437 15.4863 4.04094 15.117 3.98704C14.9593 3.96405 14.7618 3.94729 14.521 3.94729C14.2802 3.94729 14.0827 3.96405 13.925 3.98704C13.5557 4.04094 13.3461 4.36437 13.3356 4.70405C13.3207 5.18204 13.3022 6.03622 13.3022 7.3327V9.89284C13.3022 10.2688 13.5355 10.629 13.9408 10.6822Z" fill="#111928"/>
</g>
<path d="M13 14C12.7348 14 12.4804 14.1054 12.2929 14.2929C12.1054 14.4804 12 14.7348 12 15V18.5C12 18.6326 11.9473 18.7598 11.8536 18.8536C11.7598 18.9473 11.6326 19 11.5 19H2.5C2.36739 19 2.24021 18.9473 2.14645 18.8536C2.05268 18.7598 2 18.6326 2 18.5V4.5C2 4.36739 2.05268 4.24021 2.14645 4.14645C2.24021 4.05268 2.36739 4 2.5 4H9C9.13261 4 9.25979 3.94732 9.35355 3.85355C9.44732 3.75979 9.5 3.63261 9.5 3.5V0.5C9.5 0.367392 9.44732 0.240215 9.35355 0.146447C9.25979 0.0526784 9.13261 0 9 0L2.5 0C1.83696 0 1.20107 0.263392 0.732233 0.732233C0.263392 1.20107 0 1.83696 0 2.5L0 21.5C0 21.8283 0.0646644 22.1534 0.190301 22.4567C0.315938 22.76 0.500087 23.0356 0.732233 23.2678C0.964379 23.4999 1.23998 23.6841 1.54329 23.8097C1.84661 23.9353 2.1717 24 2.5 24H11.5C11.8283 24 12.1534 23.9353 12.4567 23.8097C12.76 23.6841 13.0356 23.4999 13.2678 23.2678C13.4999 23.0356 13.6841 22.76 13.8097 22.4567C13.9353 22.1534 14 21.8283 14 21.5V15C14 14.7348 13.8946 14.4804 13.7071 14.2929C13.5196 14.1054 13.2652 14 13 14Z" fill="#111928"/>
</g>
<defs>
<clipPath id="clip0_2646_1285">
<rect width="24" height="24" fill="white"/>
</clipPath>
<clipPath id="clip1_2646_1285">
<rect width="13" height="13" fill="white" transform="translate(11 -0.25061)"/>
</clipPath>
</defs>
</svg>
