<svg width="24" height="24" viewBox="0 0 24 24" fill="none" xmlns="http://www.w3.org/2000/svg">
<g clip-path="url(#clip0_2879_3364)">
<path d="M17.5742 7.37421C17.9732 6.78127 18.293 6.13869 18.5254 5.4628C18.7911 4.67235 19.1552 3.91844 19.609 3.21878" stroke="#111928" stroke-linecap="round" stroke-linejoin="round"/>
<path d="M12.9297 0.53653V10.8197H23.2129" stroke="#111928" stroke-linecap="round" stroke-linejoin="round"/>
<path d="M15.5957 8.15372C15.5957 8.45675 15.7161 8.74737 15.9304 8.96164C16.1446 9.17592 16.4353 9.2963 16.7383 9.2963C17.0413 9.2963 17.3319 9.17592 17.5462 8.96164C17.7605 8.74737 17.8809 8.45675 17.8809 8.15372C17.8809 7.85069 17.7605 7.56007 17.5462 7.34579C17.3319 7.13152 17.0413 7.01114 16.7383 7.01114C16.4353 7.01114 16.1446 7.13152 15.9304 7.34579C15.7161 7.56007 15.5957 7.85069 15.5957 8.15372Z" stroke="#111928" stroke-linecap="round" stroke-linejoin="round"/>
<path d="M19.2388 2.37683C19.2388 2.67986 19.3591 2.97048 19.5734 3.18476C19.7877 3.39903 20.0783 3.51941 20.3813 3.51941C20.6844 3.51941 20.975 3.39903 21.1893 3.18476C21.4035 2.97048 21.5239 2.67986 21.5239 2.37683C21.5239 2.0738 21.4035 1.78318 21.1893 1.56891C20.975 1.35463 20.6844 1.23425 20.3813 1.23425C20.0783 1.23425 19.7877 1.35463 19.5734 1.56891C19.3591 1.78318 19.2388 2.0738 19.2388 2.37683Z" stroke="#111928" stroke-linecap="round" stroke-linejoin="round"/>
<path d="M21.082 1.476C21.6408 0.894696 22.4067 0.557758 23.2128 0.538574" stroke="#111928" stroke-linecap="round" stroke-linejoin="round"/>
<path d="M12.9297 10.8197C14.0758 10.4562 15.13 9.85003 16.0207 9.04239" stroke="#111928" stroke-linecap="round" stroke-linejoin="round"/>
<path d="M13 14C12.7348 14 12.4804 14.1054 12.2929 14.2929C12.1054 14.4804 12 14.7348 12 15V18.5C12 18.6326 11.9473 18.7598 11.8536 18.8536C11.7598 18.9473 11.6326 19 11.5 19H2.5C2.36739 19 2.24021 18.9473 2.14645 18.8536C2.05268 18.7598 2 18.6326 2 18.5V4.5C2 4.36739 2.05268 4.24021 2.14645 4.14645C2.24021 4.05268 2.36739 4 2.5 4H9C9.13261 4 9.25979 3.94732 9.35355 3.85355C9.44732 3.75979 9.5 3.63261 9.5 3.5V0.5C9.5 0.367392 9.44732 0.240215 9.35355 0.146447C9.25979 0.0526784 9.13261 0 9 0L2.5 0C1.83696 0 1.20107 0.263392 0.732233 0.732233C0.263392 1.20107 0 1.83696 0 2.5L0 21.5C0 21.8283 0.0646644 22.1534 0.190301 22.4567C0.315938 22.76 0.500087 23.0356 0.732233 23.2678C0.964379 23.4999 1.23998 23.6841 1.54329 23.8097C1.84661 23.9353 2.1717 24 2.5 24H11.5C11.8283 24 12.1534 23.9353 12.4567 23.8097C12.76 23.6841 13.0356 23.4999 13.2678 23.2678C13.4999 23.0356 13.6841 22.76 13.8097 22.4567C13.9353 22.1534 14 21.8283 14 21.5V15C14 14.7348 13.8946 14.4804 13.7071 14.2929C13.5196 14.1054 13.2652 14 13 14Z" fill="#111928"/>
</g>
<defs>
<clipPath id="clip0_2879_3364">
<rect width="24" height="24" fill="white"/>
</clipPath>
</defs>
</svg>
