<svg width="24" height="25" viewBox="0 0 24 25" fill="none" xmlns="http://www.w3.org/2000/svg">
<path d="M23.72 3.33023L22.72 1.22023C22.6081 0.99509 22.4332 0.807246 22.2167 0.679454C22.0001 0.551662 21.7512 0.489406 21.5 0.500229H13.5C13.2572 0.499006 13.0189 0.565804 12.8121 0.693056C12.6053 0.820309 12.4383 1.00293 12.33 1.22023L11.28 3.33023C11.0972 3.69323 11.0013 4.09379 11 4.50023V5.50023C11.0006 5.82874 11.0821 6.15204 11.2374 6.44156C11.3926 6.73108 11.6167 6.97791 11.89 7.16023C11.9237 7.18401 11.9512 7.21545 11.9703 7.25196C11.9895 7.28847 11.9996 7.32901 12 7.37023V11.0002C12 11.5307 12.2107 12.0394 12.5858 12.4144C12.9609 12.7895 13.4696 13.0002 14 13.0002H21C21.5304 13.0002 22.0391 12.7895 22.4142 12.4144C22.7893 12.0394 23 11.5307 23 11.0002V7.37023C23.0004 7.32901 23.0105 7.28847 23.0297 7.25196C23.0488 7.21545 23.0763 7.18401 23.11 7.16023C23.3833 6.97791 23.6074 6.73108 23.7626 6.44156C23.9179 6.15204 23.9994 5.82874 24 5.50023V4.50023C23.9987 4.09379 23.9028 3.69323 23.72 3.33023ZM19.25 11.0002C19.1837 11.0002 19.1201 10.9739 19.0732 10.927C19.0263 10.8801 19 10.8165 19 10.7502V10.0002C19 9.6024 18.842 9.22087 18.5607 8.93957C18.2794 8.65826 17.8978 8.50023 17.5 8.50023C17.1022 8.50023 16.7206 8.65826 16.4393 8.93957C16.158 9.22087 16 9.6024 16 10.0002V10.7502C16 10.8165 15.9737 10.8801 15.9268 10.927C15.8799 10.9739 15.8163 11.0002 15.75 11.0002H14.25C14.1837 11.0002 14.1201 10.9739 14.0732 10.927C14.0263 10.8801 14 10.8165 14 10.7502V7.37023C14.0004 7.32901 14.0105 7.28847 14.0297 7.25196C14.0488 7.21545 14.0763 7.18401 14.11 7.16023C14.1875 7.10919 14.2611 7.05236 14.33 6.99023C14.3762 6.94735 14.437 6.92353 14.5 6.92353C14.563 6.92353 14.6238 6.94735 14.67 6.99023C15.0363 7.31635 15.5096 7.49654 16 7.49654C16.4904 7.49654 16.9637 7.31635 17.33 6.99023C17.3762 6.94735 17.437 6.92353 17.5 6.92353C17.563 6.92353 17.6238 6.94735 17.67 6.99023C18.0363 7.31635 18.5096 7.49654 19 7.49654C19.4904 7.49654 19.9637 7.31635 20.33 6.99023C20.3762 6.94735 20.437 6.92353 20.5 6.92353C20.563 6.92353 20.6238 6.94735 20.67 6.99023C20.7389 7.05236 20.8125 7.10919 20.89 7.16023C20.9237 7.18401 20.9512 7.21545 20.9703 7.25196C20.9895 7.28847 20.9996 7.32901 21 7.37023V10.7502C21.0014 10.7834 20.9959 10.8166 20.9839 10.8475C20.9718 10.8785 20.9534 10.9066 20.9299 10.9302C20.9064 10.9537 20.8783 10.972 20.8473 10.9841C20.8163 10.9961 20.7832 11.0016 20.75 11.0002H19.25Z" fill="#111928"/>
<path d="M13 14.5C12.7348 14.5 12.4804 14.6054 12.2929 14.7929C12.1054 14.9804 12 15.2348 12 15.5V19C12 19.1326 11.9473 19.2598 11.8536 19.3536C11.7598 19.4473 11.6326 19.5 11.5 19.5H2.5C2.36739 19.5 2.24021 19.4473 2.14645 19.3536C2.05268 19.2598 2 19.1326 2 19V5C2 4.86739 2.05268 4.74021 2.14645 4.64645C2.24021 4.55268 2.36739 4.5 2.5 4.5H9C9.13261 4.5 9.25979 4.44732 9.35355 4.35355C9.44732 4.25979 9.5 4.13261 9.5 4V1C9.5 0.867392 9.44732 0.740215 9.35355 0.646447C9.25979 0.552678 9.13261 0.5 9 0.5H2.5C1.83696 0.5 1.20107 0.763392 0.732233 1.23223C0.263392 1.70107 0 2.33696 0 3L0 22C0 22.3283 0.0646644 22.6534 0.190301 22.9567C0.315938 23.26 0.500087 23.5356 0.732233 23.7678C0.964379 23.9999 1.23998 24.1841 1.54329 24.3097C1.84661 24.4353 2.1717 24.5 2.5 24.5H11.5C11.8283 24.5 12.1534 24.4353 12.4567 24.3097C12.76 24.1841 13.0356 23.9999 13.2678 23.7678C13.4999 23.5356 13.6841 23.26 13.8097 22.9567C13.9353 22.6534 14 22.3283 14 22V15.5C14 15.2348 13.8946 14.9804 13.7071 14.7929C13.5196 14.6054 13.2652 14.5 13 14.5Z" fill="#111928"/>
</svg>
