<svg width="24" height="24" viewBox="0 0 24 24" fill="none" xmlns="http://www.w3.org/2000/svg">
<path d="M23.72 2.82925L22.72 0.719252C22.6081 0.494114 22.4332 0.30627 22.2167 0.178477C22.0001 0.0506853 21.7512 -0.0115706 21.5 -0.000747947H13.5C13.2572 -0.00197104 13.0189 0.0648273 12.8121 0.19208C12.6053 0.319332 12.4383 0.501952 12.33 0.719252L11.28 2.82925C11.0972 3.19225 11.0013 3.59281 11 3.99925V4.99925C11.0006 5.32776 11.0821 5.65106 11.2374 5.94058C11.3926 6.2301 11.6167 6.47693 11.89 6.65925C11.9237 6.68303 11.9512 6.71447 11.9703 6.75099C11.9895 6.7875 11.9996 6.82803 12 6.86925V10.4993C12 11.0297 12.2107 11.5384 12.5858 11.9135C12.9609 12.2885 13.4696 12.4993 14 12.4993H21C21.5304 12.4993 22.0391 12.2885 22.4142 11.9135C22.7893 11.5384 23 11.0297 23 10.4993V6.86925C23.0004 6.82803 23.0105 6.7875 23.0297 6.75099C23.0488 6.71447 23.0763 6.68303 23.11 6.65925C23.3833 6.47693 23.6074 6.2301 23.7626 5.94058C23.9179 5.65106 23.9994 5.32776 24 4.99925V3.99925C23.9987 3.59281 23.9028 3.19225 23.72 2.82925ZM19.25 10.4993C19.1837 10.4993 19.1201 10.4729 19.0732 10.426C19.0263 10.3791 19 10.3156 19 10.2493V9.49925C19 9.10143 18.842 8.7199 18.5607 8.43859C18.2794 8.15729 17.8978 7.99925 17.5 7.99925C17.1022 7.99925 16.7206 8.15729 16.4393 8.43859C16.158 8.7199 16 9.10143 16 9.49925V10.2493C16 10.3156 15.9737 10.3791 15.9268 10.426C15.8799 10.4729 15.8163 10.4993 15.75 10.4993H14.25C14.1837 10.4993 14.1201 10.4729 14.0732 10.426C14.0263 10.3791 14 10.3156 14 10.2493V6.86925C14.0004 6.82803 14.0105 6.7875 14.0297 6.75099C14.0488 6.71447 14.0763 6.68303 14.11 6.65925C14.1875 6.60821 14.2611 6.55139 14.33 6.48925C14.3762 6.44638 14.437 6.42255 14.5 6.42255C14.563 6.42255 14.6238 6.44638 14.67 6.48925C15.0363 6.81538 15.5096 6.99556 16 6.99556C16.4904 6.99556 16.9637 6.81538 17.33 6.48925C17.3762 6.44638 17.437 6.42255 17.5 6.42255C17.563 6.42255 17.6238 6.44638 17.67 6.48925C18.0363 6.81538 18.5096 6.99556 19 6.99556C19.4904 6.99556 19.9637 6.81538 20.33 6.48925C20.3762 6.44638 20.437 6.42255 20.5 6.42255C20.563 6.42255 20.6238 6.44638 20.67 6.48925C20.7389 6.55139 20.8125 6.60821 20.89 6.65925C20.9237 6.68303 20.9512 6.71447 20.9703 6.75099C20.9895 6.7875 20.9996 6.82803 21 6.86925V10.2493C21.0014 10.2825 20.9959 10.3156 20.9839 10.3466C20.9718 10.3775 20.9534 10.4057 20.9299 10.4292C20.9064 10.4527 20.8783 10.471 20.8473 10.4831C20.8163 10.4952 20.7832 10.5007 20.75 10.4993H19.25Z" fill="#FC5203"/>
<path d="M13 14C12.7348 14 12.4804 14.1054 12.2929 14.2929C12.1054 14.4804 12 14.7348 12 15V18.5C12 18.6326 11.9473 18.7598 11.8536 18.8536C11.7598 18.9473 11.6326 19 11.5 19H2.5C2.36739 19 2.24021 18.9473 2.14645 18.8536C2.05268 18.7598 2 18.6326 2 18.5V4.5C2 4.36739 2.05268 4.24021 2.14645 4.14645C2.24021 4.05268 2.36739 4 2.5 4H9C9.13261 4 9.25979 3.94732 9.35355 3.85355C9.44732 3.75979 9.5 3.63261 9.5 3.5V0.5C9.5 0.367392 9.44732 0.240215 9.35355 0.146447C9.25979 0.0526784 9.13261 0 9 0L2.5 0C1.83696 0 1.20107 0.263392 0.732233 0.732233C0.263392 1.20107 0 1.83696 0 2.5L0 21.5C0 21.8283 0.0646644 22.1534 0.190301 22.4567C0.315938 22.76 0.500087 23.0356 0.732233 23.2678C0.964379 23.4999 1.23998 23.6841 1.54329 23.8097C1.84661 23.9353 2.1717 24 2.5 24H11.5C11.8283 24 12.1534 23.9353 12.4567 23.8097C12.76 23.6841 13.0356 23.4999 13.2678 23.2678C13.4999 23.0356 13.6841 22.76 13.8097 22.4567C13.9353 22.1534 14 21.8283 14 21.5V15C14 14.7348 13.8946 14.4804 13.7071 14.2929C13.5196 14.1054 13.2652 14 13 14Z" fill="#FC5203"/>
</svg>
