<svg width="24" height="24" viewBox="0 0 24 24" fill="none" xmlns="http://www.w3.org/2000/svg">
<path d="M14.87 21.07H1.78996C1.65556 21.0823 1.52011 21.0649 1.39319 21.019C1.26628 20.9731 1.15103 20.8998 1.05559 20.8044C0.960164 20.7089 0.886898 20.5937 0.840992 20.4668C0.795085 20.3399 0.777663 20.2044 0.78996 20.07V7H18.36V9.64C17.4227 9.57833 16.4838 9.73395 15.6165 10.0947C14.7492 10.4555 13.977 11.0117 13.36 11.72C12.5825 12.5727 12.0776 13.6383 11.91 14.78C11.7099 16.0048 11.8857 17.2614 12.4141 18.3842C12.9425 19.5071 13.7987 20.4435 14.87 21.07ZM9.46996 9.07H16.58C16.6313 9.06173 16.6804 9.04302 16.7242 9.01502C16.768 8.98701 16.8056 8.95032 16.8347 8.9072C16.8637 8.86408 16.8836 8.81545 16.8931 8.76433C16.9027 8.71321 16.9016 8.66068 16.89 8.61C16.8682 8.5056 16.8075 8.41341 16.7202 8.35212C16.6329 8.29084 16.5256 8.26505 16.42 8.28H2.53996H2.33996C2.25404 8.29984 2.17738 8.34821 2.12249 8.41723C2.06759 8.48624 2.03771 8.57182 2.03771 8.66C2.03771 8.74818 2.06759 8.83376 2.12249 8.90277C2.17738 8.97179 2.25404 9.02016 2.33996 9.04H9.46996V9.07ZM6.46996 11.22H10.4H10.66C10.7417 11.1927 10.8127 11.1403 10.863 11.0703C10.9133 11.0003 10.9402 10.9162 10.94 10.83C10.9369 10.7437 10.9045 10.661 10.8482 10.5956C10.7918 10.5301 10.7148 10.4859 10.63 10.47C10.5536 10.4596 10.4763 10.4596 10.4 10.47H2.59996C2.52365 10.4596 2.44627 10.4596 2.36996 10.47C2.28527 10.4882 2.20935 10.5349 2.15479 10.6022C2.10023 10.6695 2.0703 10.7534 2.06996 10.84C2.06869 10.9252 2.09538 11.0085 2.14594 11.0772C2.19651 11.1458 2.26817 11.196 2.34996 11.22C2.43632 11.2304 2.5236 11.2304 2.60996 11.22H6.46996ZM6.46996 19.79H10.59C10.6453 19.7801 10.6978 19.7583 10.7439 19.7262C10.79 19.694 10.8286 19.6523 10.8571 19.6039C10.8856 19.5555 10.9033 19.5014 10.9089 19.4455C10.9146 19.3896 10.9081 19.3332 10.89 19.28C10.8582 19.1868 10.7948 19.1078 10.7107 19.0566C10.6267 19.0054 10.5273 18.9854 10.43 19H2.54996C2.47404 18.9849 2.39588 18.9849 2.31996 19C2.23934 19.0314 2.17145 19.0887 2.12697 19.1629C2.08249 19.2371 2.06395 19.324 2.07426 19.4099C2.08456 19.4958 2.12314 19.5758 2.18391 19.6374C2.24469 19.699 2.32421 19.7386 2.40996 19.75H6.48996L6.46996 19.79ZM6.46996 12.57H2.46996C2.373 12.5667 2.2783 12.5997 2.20434 12.6625C2.13038 12.7252 2.08247 12.8133 2.06998 12.9095C2.05749 13.0058 2.0813 13.1032 2.13677 13.1828C2.19223 13.2624 2.27538 13.3184 2.36996 13.34C2.43957 13.3504 2.51035 13.3504 2.57996 13.34H10.58C10.6703 13.3298 10.7546 13.2899 10.8198 13.2266C10.885 13.1632 10.9272 13.08 10.94 12.99C10.9518 12.9007 10.9323 12.8101 10.8849 12.7336C10.8375 12.657 10.7651 12.5992 10.68 12.57C10.6003 12.5596 10.5196 12.5596 10.44 12.57H6.46996ZM6.46996 17.64H10.47C10.5233 17.6427 10.5767 17.6347 10.6269 17.6164C10.6771 17.5981 10.7231 17.57 10.7623 17.5336C10.8014 17.4973 10.8329 17.4534 10.8548 17.4047C10.8767 17.356 10.8887 17.3034 10.89 17.25C10.8874 17.143 10.843 17.0413 10.7664 16.9665C10.6898 16.8918 10.587 16.85 10.48 16.85H2.42996C2.33816 16.8607 2.25266 16.902 2.18731 16.9674C2.12197 17.0327 2.08061 17.1182 2.06996 17.21C2.06234 17.2974 2.08366 17.3849 2.13065 17.459C2.17763 17.533 2.24766 17.5896 2.32996 17.62C2.40628 17.6303 2.48364 17.6303 2.55996 17.62L6.46996 17.64ZM6.46996 14.71H2.42996C2.37074 14.7161 2.31363 14.7353 2.26279 14.7663C2.21195 14.7973 2.16866 14.8392 2.13608 14.889C2.1035 14.9388 2.08246 14.9953 2.07448 15.0543C2.0665 15.1133 2.07179 15.1733 2.08996 15.23C2.11959 15.3197 2.18004 15.3961 2.26057 15.4455C2.34111 15.4949 2.43654 15.5142 2.52996 15.5H10.53C10.6018 15.4944 10.6706 15.469 10.7289 15.4266C10.7871 15.3842 10.8325 15.3266 10.86 15.26C10.8888 15.1971 10.9004 15.1276 10.8936 15.0587C10.8867 14.9898 10.8616 14.9239 10.8209 14.8679C10.7802 14.8119 10.7253 14.7678 10.6618 14.74C10.5984 14.7123 10.5287 14.7019 10.46 14.71H6.46996Z" fill="#D1D5DB"/>
<path d="M23.2298 15.7597C23.2298 16.8147 22.9167 17.846 22.3302 18.723C21.7436 19.5999 20.91 20.2831 19.9349 20.6859C18.9598 21.0887 17.8871 21.1931 16.8526 20.9858C15.8182 20.7785 14.8685 20.2689 14.1239 19.5215C13.3793 18.7741 12.8732 17.8225 12.6698 16.7872C12.4664 15.752 12.5748 14.6797 12.9813 13.7061C13.3878 12.7326 14.0741 11.9015 14.9532 11.3183C15.8323 10.735 16.8648 10.4258 17.9198 10.4297C18.6185 10.431 19.31 10.5699 19.9549 10.8385C20.5999 11.1071 21.1856 11.5 21.6787 11.995C22.1718 12.4899 22.5626 13.0771 22.8287 13.7231C23.0948 14.369 23.2311 15.0611 23.2298 15.7597ZM16.4998 14.2597H15.6898C15.6292 14.2554 15.5683 14.264 15.5112 14.285C15.4541 14.3059 15.4021 14.3387 15.3586 14.3813C15.3151 14.4238 15.2812 14.4751 15.259 14.5317C15.2368 14.5883 15.2268 14.649 15.2298 14.7097V16.0497C15.2298 16.1691 15.2772 16.2835 15.3616 16.3679C15.446 16.4523 15.5605 16.4997 15.6798 16.4997C15.8798 16.4997 16.0798 16.4997 16.2898 16.4997H16.4798V19.5597C16.4798 19.9297 16.6798 20.1197 17.0098 20.0997C17.3398 20.0797 17.8198 20.0997 18.2198 20.0997C18.6198 20.0997 18.7698 19.9497 18.7698 19.5497V16.4997H19.7698C19.8301 16.5025 19.8903 16.4928 19.9467 16.4713C20.0031 16.4498 20.0545 16.4169 20.0976 16.3747C20.1408 16.3325 20.1748 16.2819 20.1975 16.226C20.2203 16.1701 20.2313 16.1101 20.2298 16.0497C20.2298 15.5997 20.2298 15.1597 20.2298 14.7097C20.233 14.6481 20.2228 14.5865 20.2 14.5291C20.1772 14.4717 20.1424 14.4199 20.0978 14.3772C20.0532 14.3345 19.9999 14.3019 19.9416 14.2817C19.8833 14.2614 19.8213 14.2539 19.7598 14.2597H18.7598V13.8397C18.7598 13.4297 18.7598 13.4297 19.1698 13.4297H19.7598C19.8236 13.4344 19.8876 13.425 19.9474 13.4024C20.0072 13.3798 20.0614 13.3444 20.1061 13.2987C20.1509 13.253 20.1851 13.1981 20.2065 13.1379C20.2278 13.0776 20.2358 13.0134 20.2298 12.9497C20.2298 12.5297 20.2298 12.1197 20.2298 11.6997C20.2327 11.6477 20.2246 11.5957 20.206 11.5471C20.1875 11.4985 20.1588 11.4543 20.122 11.4175C20.0852 11.3807 20.0411 11.3521 19.9924 11.3335C19.9438 11.3149 19.8918 11.3068 19.8398 11.3097H18.3998H18.1998C17.7314 11.4004 17.3078 11.6479 16.9988 12.0114C16.6898 12.3749 16.5139 12.8328 16.4998 13.3097C16.4898 13.6597 16.4998 13.9997 16.4998 14.2597Z" fill="#D1D5DB"/>
<path d="M0.769796 6.1496V3.8796C0.761649 3.74837 0.782352 3.61695 0.83045 3.49459C0.878547 3.37222 0.95287 3.26188 1.04819 3.17133C1.14351 3.08077 1.25752 3.0122 1.38219 2.97044C1.50686 2.92868 1.63916 2.91473 1.7698 2.9296H17.4298C17.5529 2.9211 17.6764 2.93858 17.7922 2.9809C17.9081 3.02322 18.0138 3.08944 18.1025 3.17525C18.1911 3.26106 18.2607 3.36455 18.3068 3.479C18.3528 3.59345 18.3743 3.71631 18.3698 3.8396C18.3698 4.5696 18.3698 5.2996 18.3698 6.0196C18.3698 6.1296 18.3698 6.1696 18.2298 6.1596H0.769796V6.1496ZM3.9398 5.6196H5.1498C5.21422 5.62946 5.28005 5.62421 5.34209 5.60423C5.40413 5.58426 5.46067 5.55013 5.50723 5.50453C5.5538 5.45894 5.58912 5.40313 5.61039 5.34152C5.63166 5.27992 5.63831 5.21421 5.6298 5.1496V3.9296C5.6298 3.6196 5.4798 3.4596 5.1798 3.4596H2.6998C2.3898 3.4596 2.2498 3.6196 2.2498 3.9296V5.1396C2.23954 5.20497 2.24488 5.27184 2.26538 5.33476C2.28588 5.39768 2.32095 5.45486 2.36774 5.50165C2.41453 5.54844 2.47172 5.58352 2.53463 5.60401C2.59755 5.62451 2.66442 5.62985 2.7298 5.6196H3.9398ZM8.0498 5.6196H9.2998C9.35781 5.62593 9.4165 5.61916 9.47155 5.59978C9.5266 5.58041 9.5766 5.54893 9.61787 5.50767C9.65913 5.4664 9.69061 5.4164 9.70998 5.36135C9.72935 5.3063 9.73612 5.24761 9.7298 5.1896V3.8896C9.73732 3.83526 9.73267 3.77992 9.71617 3.7276C9.69968 3.67528 9.67175 3.62728 9.63443 3.58708C9.5971 3.54688 9.5513 3.51549 9.50034 3.49517C9.44938 3.47485 9.39454 3.46611 9.3398 3.4696C8.4798 3.4696 7.6298 3.4696 6.7698 3.4696C6.71425 3.46453 6.65827 3.47209 6.60605 3.49171C6.55383 3.51133 6.50673 3.5425 6.46826 3.58289C6.42979 3.62329 6.40095 3.67186 6.3839 3.72497C6.36685 3.77808 6.36203 3.83436 6.3698 3.8896V5.1496C6.35947 5.21366 6.3645 5.27925 6.38447 5.34099C6.40444 5.40273 6.43878 5.45885 6.48466 5.50473C6.53054 5.55061 6.58666 5.58495 6.6484 5.60492C6.71014 5.62489 6.77573 5.62992 6.8398 5.6196H8.0498Z" fill="#D1D5DB"/>
<path d="M19.6598 14.8003V16.0003H18.6598C18.3598 16.0003 18.2798 16.0803 18.2798 16.3803V19.5903H17.0498C17.0448 19.5271 17.0448 19.4636 17.0498 19.4003C17.0498 18.4003 17.0498 17.4003 17.0498 16.4003C17.0498 16.0603 16.9598 15.9603 16.6098 15.9603H15.7998V14.8003H16.6398C16.9398 14.8003 17.0498 14.6903 17.0498 14.3803C17.0498 14.0703 17.0498 13.7503 17.0498 13.3803C17.0456 13.1661 17.0851 12.9532 17.1658 12.7546C17.2465 12.5561 17.3667 12.376 17.5192 12.2254C17.6717 12.0748 17.8532 11.9568 18.0527 11.8786C18.2522 11.8003 18.4656 11.7635 18.6798 11.7703H19.6798V12.7703C19.6798 12.7703 19.5998 12.8403 19.5598 12.8403C19.3498 12.8403 19.1298 12.8403 18.9098 12.8403C18.8136 12.8358 18.7176 12.8518 18.6281 12.8871C18.5386 12.9225 18.4576 12.9765 18.3904 13.0455C18.3233 13.1145 18.2716 13.197 18.2388 13.2874C18.2059 13.3779 18.1926 13.4743 18.1998 13.5703C18.1998 13.8603 18.1998 14.1503 18.1998 14.4303C18.1951 14.4735 18.2001 14.5172 18.2145 14.5582C18.2289 14.5992 18.2523 14.6364 18.283 14.6671C18.3137 14.6979 18.3509 14.7213 18.3919 14.7357C18.4329 14.7501 18.4766 14.7551 18.5198 14.7503L19.6598 14.8003Z" fill="#D1D5DB"/>
<path d="M4.8198 4.26953C4.8198 4.42953 4.8198 4.58953 4.8198 4.73953C4.8198 4.88953 4.7498 4.81953 4.7198 4.81953H3.1498C3.1498 4.81953 3.0498 4.76953 3.0498 4.73953C3.0498 4.70953 3.0498 4.42953 3.0498 4.26953H4.8198Z" fill="#D1D5DB"/>
<path d="M7.16021 4.26953H8.94021C8.94021 4.42953 8.94021 4.58953 8.94021 4.73953C8.94021 4.88953 8.88021 4.81953 8.84021 4.81953H7.27021C7.24646 4.81336 7.22434 4.80211 7.20535 4.78658C7.18636 4.77104 7.17096 4.75158 7.16021 4.72953C7.15021 4.57953 7.16021 4.42953 7.16021 4.26953Z" fill="#D1D5DB"/>
</svg>
