<svg width="24" height="25" viewBox="0 0 24 25" fill="none" xmlns="http://www.w3.org/2000/svg">
<path d="M13.293 9.08734V7.27334L16.293 4.87334V8.79334H18.293V2.79334C18.293 2.60491 18.2399 2.4203 18.1396 2.26077C18.0393 2.10124 17.896 1.97329 17.7262 1.89166C17.5563 1.81004 17.3669 1.77806 17.1797 1.79941C16.9924 1.82076 16.8151 1.89457 16.668 2.01234L12.293 5.51234L7.91697 2.01234C7.73726 1.87616 7.51795 1.80245 7.29247 1.80245C7.06699 1.80245 6.84768 1.87616 6.66797 2.01234L1.66797 6.01234C1.5509 6.10607 1.45641 6.22493 1.3915 6.36013C1.32659 6.49532 1.29291 6.64338 1.29297 6.79334V20.7933C1.29305 20.9816 1.34627 21.166 1.4465 21.3254C1.54674 21.4847 1.68991 21.6125 1.85957 21.6941C2.02923 21.7757 2.21847 21.8078 2.40553 21.7866C2.59258 21.7654 2.76986 21.6918 2.91697 21.5743L7.91697 17.5743C8.03422 17.4807 8.1289 17.3619 8.19399 17.2267C8.25908 17.0915 8.29291 16.9434 8.29297 16.7933V15.7933C8.29344 14.2863 8.7803 12.8196 9.68114 11.6114C10.582 10.4032 11.8487 9.51794 13.293 9.08734ZM6.29297 16.3123L3.29297 18.7123V7.27334L6.29297 4.87334V16.3123Z" fill="#D1D5DB"/>
<g clip-path="url(#clip0_2399_10908)">
<path d="M21.4924 15.9315H15.6627V17.6581H19.8471C19.6236 20.055 17.6736 21.0909 15.7846 21.0909C13.3877 21.0909 11.2549 19.2222 11.2549 16.5206C11.2549 13.9206 13.2861 11.9503 15.7846 11.9503C17.694 11.9503 18.8518 13.1894 18.8518 13.1894L20.0299 11.9503C20.0299 11.9503 18.4455 10.2237 15.7033 10.2237C12.0877 10.2034 9.3252 13.23 9.3252 16.5003C9.3252 19.669 11.9252 22.7972 15.7643 22.7972C19.1565 22.7972 21.594 20.5019 21.594 17.069C21.6143 16.3581 21.4924 15.9315 21.4924 15.9315Z" fill="#D1D5DB"/>
</g>
<defs>
<clipPath id="clip0_2399_10908">
<rect width="13" height="13" fill="white" transform="translate(9 10)"/>
</clipPath>
</defs>
</svg>
