<svg width="64" height="32" viewBox="0 0 64 32" fill="none" xmlns="http://www.w3.org/2000/svg">
<rect width="64" height="32" rx="6" fill="white"/>
<rect x="4" y="4" width="24" height="24" rx="4" fill="white"/>
<g clip-path="url(#clip0_708_6926)">
<path d="M13 23.2539V18.2539" stroke="black" stroke-linecap="round" stroke-linejoin="round"/>
<path d="M13 18.2539H13.5C13.8978 18.2539 14.2794 18.4119 14.5607 18.6932C14.842 18.9746 15 19.3561 15 19.7539C15 20.1517 14.842 20.5333 14.5607 20.8146C14.2794 21.0959 13.8978 21.2539 13.5 21.2539H13" stroke="black" stroke-linecap="round" stroke-linejoin="round"/>
<path d="M10 18.2539C9.73478 18.2539 9.48043 18.3593 9.29289 18.5468C9.10536 18.7343 9 18.9887 9 19.2539V22.2539C9 22.5191 9.10536 22.7735 9.29289 22.961C9.48043 23.1485 9.73478 23.2539 10 23.2539C10.2652 23.2539 10.5196 23.1485 10.7071 22.961C10.8946 22.7735 11 22.5191 11 22.2539V19.2539C11 18.9887 10.8946 18.7343 10.7071 18.5468C10.5196 18.3593 10.2652 18.2539 10 18.2539Z" stroke="black" stroke-linecap="round" stroke-linejoin="round"/>
<path d="M19 23.2471H18C17.7348 23.2471 17.4804 23.1417 17.2929 22.9542C17.1054 22.7666 17 22.5123 17 22.2471V19.2471C17 18.9819 17.1054 18.7275 17.2929 18.54C17.4804 18.3524 17.7348 18.2471 18 18.2471H19" stroke="black" stroke-linecap="round" stroke-linejoin="round"/>
<path d="M17 21.2471H19" stroke="black" stroke-linecap="round" stroke-linejoin="round"/>
<path d="M21 23.2539V18.2539L23 23.2539V18.2539" stroke="black" stroke-linecap="round" stroke-linejoin="round"/>
<path d="M8.49992 13.2471C8.48466 13.5029 8.52188 13.7592 8.6093 14.0001C8.69671 14.2411 8.83247 14.4616 9.00823 14.6482C9.18399 14.8347 9.39604 14.9834 9.63136 15.085C9.86667 15.1866 10.1203 15.239 10.3766 15.239C10.6329 15.239 10.8865 15.1866 11.1218 15.085C11.3571 14.9834 11.5692 14.8347 11.7449 14.6482C11.9207 14.4616 12.0565 14.2411 12.1439 14.0001C12.2313 13.7592 12.2685 13.5029 12.2532 13.2471C12.2532 13.7439 12.4506 14.2204 12.8019 14.5717C13.1533 14.923 13.6297 15.1204 14.1266 15.1204C14.6234 15.1204 15.0999 14.923 15.4512 14.5717C15.8025 14.2204 15.9999 13.7439 15.9999 13.2471C15.9847 13.5029 16.0219 13.7592 16.1093 14.0001C16.1967 14.2411 16.3325 14.4616 16.5082 14.6482C16.684 14.8347 16.896 14.9834 17.1314 15.085C17.3667 15.1866 17.6203 15.239 17.8766 15.239C18.1329 15.239 18.3865 15.1866 18.6218 15.085C18.8571 14.9834 19.0692 14.8347 19.2449 14.6482C19.4207 14.4616 19.5565 14.2411 19.6439 14.0001C19.7313 13.7592 19.7685 13.5029 19.7532 13.2471C19.7532 13.7439 19.9506 14.2204 20.3019 14.5717C20.6533 14.923 21.1297 15.1204 21.6266 15.1204C22.1234 15.1204 22.5999 14.923 22.9512 14.5717C23.3025 14.2204 23.4999 13.7439 23.4999 13.2471L22.5866 9.1404C22.5612 9.02982 22.4995 8.93095 22.4112 8.85963C22.323 8.78831 22.2134 8.74868 22.0999 8.74707H9.89992C9.78647 8.74868 9.67685 8.78831 9.58861 8.85963C9.50037 8.93095 9.43862 9.02982 9.41325 9.1404L8.49992 13.2471Z" stroke="black" stroke-linecap="round" stroke-linejoin="round"/>
</g>
<rect x="36" y="4" width="24" height="24" rx="4" fill="#F23030"/>
<g clip-path="url(#clip1_708_6926)">
<path d="M40.5 23.167H55.5" stroke="white" stroke-linecap="round" stroke-linejoin="round"/>
<path d="M55.5 14.167H40.5" stroke="white" stroke-linecap="round" stroke-linejoin="round"/>
<path d="M51 12.1663L48.8 9.23301C48.7069 9.10881 48.5861 9.00801 48.4472 8.93858C48.3084 8.86915 48.1552 8.83301 48 8.83301C47.8448 8.83301 47.6916 8.86915 47.5528 8.93858C47.4139 9.00801 47.2931 9.10881 47.2 9.23301L45 12.1663" stroke="white" stroke-linecap="round" stroke-linejoin="round"/>
<path d="M42.5 16.167C41.9696 16.167 41.4609 16.3777 41.0858 16.7528C40.7107 17.1279 40.5 17.6366 40.5 18.167V19.167C40.5 19.6974 40.7107 20.2061 41.0858 20.5812C41.4609 20.9563 41.9696 21.167 42.5 21.167" stroke="white" stroke-linecap="round" stroke-linejoin="round"/>
<path d="M47.5 16.167C47.2348 16.167 46.9804 16.2723 46.7929 16.4599C46.6054 16.6474 46.5 16.9018 46.5 17.167V20.167C46.5 20.4322 46.6054 20.6866 46.7929 20.8741C46.9804 21.0616 47.2348 21.167 47.5 21.167C47.7652 21.167 48.0196 21.0616 48.2071 20.8741C48.3946 20.6866 48.5 20.4322 48.5 20.167V17.167C48.5 16.9018 48.3946 16.6474 48.2071 16.4599C48.0196 16.2723 47.7652 16.167 47.5 16.167Z" stroke="white" stroke-linecap="round" stroke-linejoin="round"/>
<path d="M43.5 16.167V20.167C43.5 20.4322 43.6054 20.6866 43.7929 20.8741C43.9804 21.0616 44.2348 21.167 44.5 21.167H45.5" stroke="white" stroke-linecap="round" stroke-linejoin="round"/>
<path d="M52 16.167H51C50.7348 16.167 50.4804 16.2723 50.2929 16.4599C50.1054 16.6474 50 16.9018 50 17.167C50 18.667 52 18.667 52 20.167C52 20.4322 51.8946 20.6866 51.7071 20.8741C51.5196 21.0616 51.2652 21.167 51 21.167H50" stroke="white" stroke-linecap="round" stroke-linejoin="round"/>
<path d="M55.5 21.167H54.5C54.2348 21.167 53.9804 21.0616 53.7929 20.8741C53.6054 20.6866 53.5 20.4322 53.5 20.167V17.167C53.5 16.9018 53.6054 16.6474 53.7929 16.4599C53.9804 16.2723 54.2348 16.167 54.5 16.167H55.5" stroke="white" stroke-linecap="round" stroke-linejoin="round"/>
<path d="M53.5 19.167H55.5" stroke="white" stroke-linecap="round" stroke-linejoin="round"/>
</g>
<defs>
<clipPath id="clip0_708_6926">
<rect width="16" height="16" fill="white" transform="translate(8 8)"/>
</clipPath>
<clipPath id="clip1_708_6926">
<rect width="16" height="16" fill="white" transform="translate(40 8)"/>
</clipPath>
</defs>
</svg>
