<svg width="64" height="32" viewBox="0 0 64 32" fill="none" xmlns="http://www.w3.org/2000/svg">
<rect width="64" height="32" rx="6" fill="white"/>
<rect x="4.00024" y="4" width="24" height="24" rx="4" fill="#22AD5C"/>
<g clip-path="url(#clip0_708_6938)">
<path d="M13.0005 23.2539V18.2539" stroke="white" stroke-linecap="round" stroke-linejoin="round"/>
<path d="M13.0005 18.2539H13.5005C13.8983 18.2539 14.2798 18.4119 14.5611 18.6932C14.8425 18.9746 15.0005 19.3561 15.0005 19.7539C15.0005 20.1517 14.8425 20.5333 14.5611 20.8146C14.2798 21.0959 13.8983 21.2539 13.5005 21.2539H13.0005" stroke="white" stroke-linecap="round" stroke-linejoin="round"/>
<path d="M10.0005 18.2539C9.73527 18.2539 9.48092 18.3593 9.29338 18.5468C9.10585 18.7343 9.00049 18.9887 9.00049 19.2539V22.2539C9.00049 22.5191 9.10585 22.7735 9.29338 22.961C9.48092 23.1485 9.73527 23.2539 10.0005 23.2539C10.2657 23.2539 10.5201 23.1485 10.7076 22.961C10.8951 22.7735 11.0005 22.5191 11.0005 22.2539V19.2539C11.0005 18.9887 10.8951 18.7343 10.7076 18.5468C10.5201 18.3593 10.2657 18.2539 10.0005 18.2539Z" stroke="white" stroke-linecap="round" stroke-linejoin="round"/>
<path d="M19.0005 23.2471H18.0005C17.7353 23.2471 17.4809 23.1417 17.2934 22.9542C17.1058 22.7666 17.0005 22.5123 17.0005 22.2471V19.2471C17.0005 18.9819 17.1058 18.7275 17.2934 18.54C17.4809 18.3524 17.7353 18.2471 18.0005 18.2471H19.0005" stroke="white" stroke-linecap="round" stroke-linejoin="round"/>
<path d="M17.0005 21.2471H19.0005" stroke="white" stroke-linecap="round" stroke-linejoin="round"/>
<path d="M21.0005 23.2539V18.2539L23.0005 23.2539V18.2539" stroke="white" stroke-linecap="round" stroke-linejoin="round"/>
<path d="M8.5004 13.2471C8.48515 13.5029 8.52237 13.7592 8.60978 14.0001C8.6972 14.2411 8.83296 14.4616 9.00872 14.6482C9.18448 14.8347 9.39653 14.9834 9.63184 15.085C9.86716 15.1866 10.1208 15.239 10.3771 15.239C10.6334 15.239 10.887 15.1866 11.1223 15.085C11.3576 14.9834 11.5697 14.8347 11.7454 14.6482C11.9212 14.4616 12.0569 14.2411 12.1444 14.0001C12.2318 13.7592 12.269 13.5029 12.2537 13.2471C12.2537 13.7439 12.4511 14.2204 12.8024 14.5717C13.1537 14.923 13.6302 15.1204 14.1271 15.1204C14.6239 15.1204 15.1004 14.923 15.4517 14.5717C15.803 14.2204 16.0004 13.7439 16.0004 13.2471C15.9851 13.5029 16.0224 13.7592 16.1098 14.0001C16.1972 14.2411 16.333 14.4616 16.5087 14.6482C16.6845 14.8347 16.8965 14.9834 17.1318 15.085C17.3672 15.1866 17.6208 15.239 17.8771 15.239C18.1334 15.239 18.387 15.1866 18.6223 15.085C18.8576 14.9834 19.0697 14.8347 19.2454 14.6482C19.4212 14.4616 19.5569 14.2411 19.6444 14.0001C19.7318 13.7592 19.769 13.5029 19.7537 13.2471C19.7537 13.7439 19.9511 14.2204 20.3024 14.5717C20.6537 14.923 21.1302 15.1204 21.6271 15.1204C22.1239 15.1204 22.6004 14.923 22.9517 14.5717C23.303 14.2204 23.5004 13.7439 23.5004 13.2471L22.5871 9.1404C22.5617 9.02982 22.5 8.93095 22.4117 8.85963C22.3235 8.78831 22.2139 8.74868 22.1004 8.74707H9.9004C9.78696 8.74868 9.67733 8.78831 9.58909 8.85963C9.50085 8.93095 9.4391 9.02982 9.41374 9.1404L8.5004 13.2471Z" stroke="white" stroke-linecap="round" stroke-linejoin="round"/>
</g>
<rect x="36.0002" y="4" width="24" height="24" rx="4" fill="white"/>
<g clip-path="url(#clip1_708_6938)">
<path d="M40.5005 23.167H55.5005" stroke="#111928" stroke-linecap="round" stroke-linejoin="round"/>
<path d="M55.5005 14.167H40.5005" stroke="#111928" stroke-linecap="round" stroke-linejoin="round"/>
<path d="M51.0005 12.1663L48.8005 9.23301C48.7073 9.10881 48.5866 9.00801 48.4477 8.93858C48.3088 8.86915 48.1557 8.83301 48.0005 8.83301C47.8452 8.83301 47.6921 8.86915 47.5533 8.93858C47.4144 9.00801 47.2936 9.10881 47.2005 9.23301L45.0005 12.1663" stroke="#111928" stroke-linecap="round" stroke-linejoin="round"/>
<path d="M42.5005 16.167C41.9701 16.167 41.4613 16.3777 41.0863 16.7528C40.7112 17.1279 40.5005 17.6366 40.5005 18.167V19.167C40.5005 19.6974 40.7112 20.2061 41.0863 20.5812C41.4613 20.9563 41.9701 21.167 42.5005 21.167" stroke="#111928" stroke-linecap="round" stroke-linejoin="round"/>
<path d="M47.5005 16.167C47.2353 16.167 46.9809 16.2723 46.7934 16.4599C46.6058 16.6474 46.5005 16.9018 46.5005 17.167V20.167C46.5005 20.4322 46.6058 20.6866 46.7934 20.8741C46.9809 21.0616 47.2353 21.167 47.5005 21.167C47.7657 21.167 48.0201 21.0616 48.2076 20.8741C48.3951 20.6866 48.5005 20.4322 48.5005 20.167V17.167C48.5005 16.9018 48.3951 16.6474 48.2076 16.4599C48.0201 16.2723 47.7657 16.167 47.5005 16.167Z" stroke="#111928" stroke-linecap="round" stroke-linejoin="round"/>
<path d="M43.5005 16.167V20.167C43.5005 20.4322 43.6058 20.6866 43.7934 20.8741C43.9809 21.0616 44.2353 21.167 44.5005 21.167H45.5005" stroke="#111928" stroke-linecap="round" stroke-linejoin="round"/>
<path d="M52.0005 16.167H51.0005C50.7353 16.167 50.4809 16.2723 50.2934 16.4599C50.1058 16.6474 50.0005 16.9018 50.0005 17.167C50.0005 18.667 52.0005 18.667 52.0005 20.167C52.0005 20.4322 51.8951 20.6866 51.7076 20.8741C51.5201 21.0616 51.2657 21.167 51.0005 21.167H50.0005" stroke="#111928" stroke-linecap="round" stroke-linejoin="round"/>
<path d="M55.5005 21.167H54.5005C54.2353 21.167 53.9809 21.0616 53.7934 20.8741C53.6058 20.6866 53.5005 20.4322 53.5005 20.167V17.167C53.5005 16.9018 53.6058 16.6474 53.7934 16.4599C53.9809 16.2723 54.2353 16.167 54.5005 16.167H55.5005" stroke="#111928" stroke-linecap="round" stroke-linejoin="round"/>
<path d="M53.5005 19.167H55.5005" stroke="#111928" stroke-linecap="round" stroke-linejoin="round"/>
</g>
<defs>
<clipPath id="clip0_708_6938">
<rect width="16" height="16" fill="white" transform="translate(8.00049 8)"/>
</clipPath>
<clipPath id="clip1_708_6938">
<rect width="16" height="16" fill="white" transform="translate(40.0005 8)"/>
</clipPath>
</defs>
</svg>
