<svg width="25" height="24" viewBox="0 0 25 24" fill="none" xmlns="http://www.w3.org/2000/svg">
<path d="M3.66406 15.3984L8.33941 10.7231C8.52875 10.5337 8.75354 10.3835 9.00093 10.2811C9.24832 10.1786 9.51347 10.1259 9.78125 10.1259C10.049 10.1259 10.3142 10.1786 10.5616 10.2811C10.809 10.3835 11.0337 10.5337 11.2231 10.7231L15.8984 15.3984M14.5391 14.0391L15.816 12.7622C16.0053 12.5728 16.2301 12.4226 16.4775 12.3201C16.7249 12.2177 16.99 12.1649 17.2578 12.1649C17.5256 12.1649 17.7907 12.2177 18.0381 12.3201C18.2855 12.4226 18.5103 12.5728 18.6997 12.7622L21.3359 15.3984M5.02344 18.7969H19.9766C20.3371 18.7969 20.6829 18.6537 20.9378 18.3987C21.1927 18.1438 21.3359 17.798 21.3359 17.4375V6.5625C21.3359 6.20197 21.1927 5.85621 20.9378 5.60128C20.6829 5.34634 20.3371 5.20312 19.9766 5.20312H5.02344C4.66291 5.20313 4.31715 5.34634 4.06221 5.60128C3.80728 5.85621 3.66406 6.20197 3.66406 6.5625V17.4375C3.66406 17.798 3.80728 18.1438 4.06221 18.3987C4.31715 18.6537 4.66291 18.7969 5.02344 18.7969ZM14.5391 8.60156H14.5463V8.60881H14.5391V8.60156ZM14.8789 8.60156C14.8789 8.69169 14.8431 8.77814 14.7794 8.84187C14.7156 8.9056 14.6292 8.94141 14.5391 8.94141C14.4489 8.94141 14.3625 8.9056 14.2988 8.84187C14.235 8.77814 14.1992 8.69169 14.1992 8.60156C14.1992 8.51143 14.235 8.42499 14.2988 8.36126C14.3625 8.29752 14.4489 8.26172 14.5391 8.26172C14.6292 8.26172 14.7156 8.29752 14.7794 8.36126C14.8431 8.42499 14.8789 8.51143 14.8789 8.60156Z" stroke="#111928" stroke-linecap="round" stroke-linejoin="round"/>
</svg>
