<svg width="41" height="49" viewBox="0 0 41 49" fill="none" xmlns="http://www.w3.org/2000/svg">
<g filter="url(#filter0_d_337_4575)">
<path fill-rule="evenodd" clip-rule="evenodd" d="M24.3875 37.4163C32.1815 35.6484 38 28.6785 38 20.3496C38 10.6846 30.165 2.84961 20.5 2.84961C10.835 2.84961 3 10.6846 3 20.3496C3 28.6785 8.81852 35.6484 16.6125 37.4163L20.5 44.1496L24.3875 37.4163Z" fill="white"/>
<rect x="6" y="6" width="29" height="29" rx="14.5" fill="white"/>
<path d="M11.7758 17.7936C11.8674 17.1155 12.0503 16.453 12.3196 15.824C12.6174 14.9701 13.0235 14.1579 13.5279 13.4073C14.554 12.0965 15.921 11.0933 17.4791 10.5073C18.0864 10.273 18.7191 10.1107 19.3641 10.024C20.1417 9.91518 20.9307 9.91518 21.7083 10.024C23.7194 10.2596 25.5828 11.1971 26.9709 12.6713C28.3589 14.1455 29.1824 16.062 29.2966 18.0836C29.399 19.3021 29.236 20.5283 28.8188 21.6777C28.4016 22.8271 27.7401 23.8724 26.88 24.7415L20.6208 31.1094C19.4972 29.7853 18.2861 28.5379 16.9958 27.3757C15.6966 26.2379 14.5256 24.9616 13.5037 23.5694C12.4273 22.0962 11.8247 20.3304 11.7758 18.5065C11.7396 18.2648 11.7516 18.0836 11.7758 17.7936ZM20.6812 17.3948C20.355 17.1532 20.1616 16.984 19.9441 16.839C19.7277 16.6689 19.4792 16.5441 19.2135 16.4719C18.9478 16.3998 18.6704 16.3818 18.3976 16.419C18.1248 16.4562 17.8623 16.5478 17.6256 16.6885C17.389 16.8291 17.183 17.0159 17.02 17.2377C16.3191 18.0957 16.4521 19.0382 17.455 19.9927C18.4579 20.9473 19.2191 21.6965 20.1616 22.4698C20.3271 22.5509 20.509 22.5931 20.6933 22.5931C20.8776 22.5931 21.0595 22.5509 21.225 22.4698C22.2864 21.5614 23.2912 20.5889 24.2337 19.5577C24.4172 19.3538 24.5522 19.1111 24.6289 18.8477C24.7056 18.5843 24.7219 18.307 24.6766 18.0365C24.6313 17.7659 24.5256 17.509 24.3673 17.285C24.2091 17.0609 24.0023 16.8754 23.7625 16.7423C22.5783 16.0052 21.6116 16.549 20.6812 17.3948Z" fill="#D92D79"/>
</g>
<defs>
<filter id="filter0_d_337_4575" x="0" y="0" width="41" height="49" filterUnits="userSpaceOnUse" color-interpolation-filters="sRGB">
<feFlood flood-opacity="0" result="BackgroundImageFix"/>
<feColorMatrix in="SourceAlpha" type="matrix" values="0 0 0 0 0 0 0 0 0 0 0 0 0 0 0 0 0 0 127 0" result="hardAlpha"/>
<feOffset dy="1"/>
<feGaussianBlur stdDeviation="1.5"/>
<feComposite in2="hardAlpha" operator="out"/>
<feColorMatrix type="matrix" values="0 0 0 0 0.65098 0 0 0 0 0.686275 0 0 0 0 0.764706 0 0 0 0.4 0"/>
<feBlend mode="normal" in2="BackgroundImageFix" result="effect1_dropShadow_337_4575"/>
<feBlend mode="normal" in="SourceGraphic" in2="effect1_dropShadow_337_4575" result="shape"/>
</filter>
</defs>
</svg>
