<svg width="24" height="24" viewBox="0 0 24 24" fill="none" xmlns="http://www.w3.org/2000/svg">
<g clip-path="url(#clip0_1403_4892)">
<path d="M11.9849 24.0015H2.52063C1.64209 24.0015 1.63899 24.0015 1.63899 23.061C1.63899 19.5455 1.64106 16.03 1.6452 12.5146C1.65397 12.3697 1.62705 12.2249 1.56696 12.0937C1.50687 11.9626 1.41557 11.8494 1.30165 11.7648C0.242017 10.8725 -0.227779 9.73602 0.10646 8.30926C0.623857 6.1102 1.12366 3.90793 1.63485 1.70888C1.92873 0.448146 2.46889 0.00683594 3.70444 0.00683594H20.3057C21.4936 0.00683594 22.0586 0.443862 22.3349 1.62105C22.8823 3.95721 23.4587 6.28908 23.9388 8.64131C24.1954 9.90097 23.6708 10.956 22.7147 11.7476C22.4187 11.9918 22.337 12.2286 22.338 12.5928C22.3494 16.1275 22.3452 19.6623 22.3442 23.1971C22.3442 23.9801 22.3101 24.0154 21.5567 24.0154L11.9849 24.0015ZM21.4853 23.1253V12.3978C19.8959 12.6849 18.6707 12.1172 17.7787 10.7279C17.0678 11.8729 16.123 12.4792 14.8637 12.4739C13.6043 12.4685 12.6906 11.8237 11.9869 10.729C11.2729 11.8579 10.3313 12.4792 9.0771 12.4739C7.82292 12.4685 6.89471 11.8312 6.21382 10.7654C5.01863 12.3143 4.15251 12.5863 2.49994 12.4342V23.1253H21.4853ZM16.5918 0.901239H12.4319V8.54598H17.3348C17.0864 5.98702 16.8412 3.4602 16.5918 0.901239ZM11.544 8.54705V0.880887H7.39659C7.14824 3.44199 6.90196 5.98595 6.65361 8.54705H11.544ZM5.81335 8.54705C6.06274 5.99559 6.31005 3.45484 6.56461 0.851967H3.62683C2.90247 0.851967 2.65102 1.04799 2.46683 1.78279C2.29505 2.47153 2.1419 3.16563 1.98357 3.85866C1.6276 5.41075 1.27371 6.96497 0.912563 8.54705H5.81335ZM18.1709 8.53312H23.0737C22.8895 7.73084 22.7157 6.97033 22.5408 6.21089C22.1973 4.71986 21.8579 3.22883 21.506 1.74101C21.4087 1.33291 21.2453 0.891599 20.7817 0.873389C19.6848 0.831615 18.5848 0.860536 17.4269 0.860536C17.6762 3.45913 17.9236 5.99666 18.1709 8.53848V8.53312ZM5.63537 9.46609H0.952922C1.20438 10.8222 2.08292 11.6137 3.2988 11.6159C4.51468 11.618 5.39633 10.8168 5.63537 9.47145V9.46609ZM11.4385 9.44252H6.77054C6.88747 10.684 7.78774 11.5527 8.99845 11.6127C10.2423 11.6791 11.1943 10.85 11.4385 9.44788V9.44252ZM17.2334 9.44252H12.5664C12.6937 10.7054 13.625 11.5848 14.8513 11.6137C16.0775 11.6426 17.0026 10.8222 17.2334 9.45002V9.44252ZM23.0282 9.44252H18.3644C18.4875 10.6872 19.3888 11.5516 20.5995 11.6094C21.8434 11.6737 22.7954 10.8436 23.0303 9.45216L23.0282 9.44252Z" fill="#1F2A37"/>
<path d="M18.8146 19.2856C18.3635 19.2856 17.9144 19.3242 17.4767 19.2674C17.2904 19.2439 17.012 19.0414 16.982 18.8797C16.923 18.5583 17.1828 18.4298 17.4818 18.4298C18.051 18.4298 18.6201 18.4298 19.1892 18.4298C19.7584 18.4298 19.9136 18.613 19.836 19.2224C19.7514 19.8289 19.4604 20.3842 19.0153 20.7882C18.5702 21.1921 18.0003 21.4183 17.4084 21.4258C16.7985 21.4358 16.2064 21.2136 15.7444 20.8015C15.2824 20.3894 14.9826 19.8161 14.9021 19.1903C14.7282 17.9799 15.5105 16.6742 16.6819 16.4182C17.2076 16.3036 17.7943 16.4235 18.3428 16.5092C18.6294 16.5553 18.9274 16.7717 18.7764 17.1573C18.6253 17.5429 18.3314 17.4229 18.0365 17.2997C17.0958 16.9098 16.1231 17.3576 15.8086 18.3055C15.7359 18.5254 15.7072 18.7583 15.7243 18.9901C15.7413 19.2218 15.8037 19.4476 15.9077 19.6536C16.0116 19.8595 16.155 20.0415 16.329 20.1884C16.503 20.3352 16.7041 20.4439 16.9199 20.5078C17.8171 20.7831 18.6677 20.2518 18.8146 19.2856Z" fill="#1F2A37"/>
</g>
<defs>
<clipPath id="clip0_1403_4892">
<rect width="24" height="24" fill="white"/>
</clipPath>
</defs>
</svg>
