<svg width="33" height="33" viewBox="0 0 33 33" fill="none" xmlns="http://www.w3.org/2000/svg">
<g clip-path="url(#clip0_3019_330)">
<circle cx="5" cy="28" r="4.5" stroke="#F56060"/>
<path d="M32.1416 7.94771L25.0523 0.858475C24.8823 0.689592 24.6807 0.555914 24.4589 0.465099C24.2371 0.374284 23.9997 0.328117 23.76 0.329244C23.4543 0.330473 23.1538 0.407587 22.8852 0.553662C22.6167 0.699737 22.3887 0.910203 22.2216 1.16617L17.1754 9.10463C14.8895 8.55612 12.4804 8.90406 10.4431 10.0769C10.2024 10.217 9.9973 10.4107 9.84375 10.643C9.69019 10.8753 9.59233 11.14 9.55779 11.4163C9.52325 11.6926 9.55297 11.9732 9.64461 12.2361C9.73626 12.4991 9.88737 12.7373 10.0862 12.9323L20.0554 22.9016C20.253 23.0997 20.4931 23.2503 20.7575 23.3419C21.0219 23.4336 21.3037 23.464 21.5816 23.4308C21.8556 23.3926 22.118 23.2946 22.3498 23.1435C22.5817 22.9925 22.7774 22.7922 22.9231 22.5569C24.0978 20.5205 24.45 18.1122 23.9077 15.8246L31.8339 10.7785C32.0648 10.632 32.2599 10.4353 32.4044 10.2031C32.549 9.97087 32.6394 9.70908 32.669 9.43714C32.6986 9.16521 32.6665 8.8901 32.5752 8.63226C32.4839 8.37441 32.3357 8.14044 32.1416 7.94771ZM24.5108 4.45232L21.9016 8.55078C21.8602 8.62336 21.8044 8.68675 21.7377 8.73708C21.671 8.78741 21.5948 8.82363 21.5136 8.84353C21.4325 8.86344 21.3481 8.86661 21.2657 8.85285C21.1833 8.8391 21.1045 8.8087 21.0343 8.76351C20.964 8.71833 20.9036 8.65931 20.8569 8.59004C20.8102 8.52078 20.778 8.44272 20.7624 8.36063C20.7469 8.27854 20.7482 8.19414 20.7663 8.11257C20.7844 8.03099 20.8189 7.95396 20.8677 7.88617L23.4769 3.78771C23.5183 3.71513 23.5741 3.65174 23.6408 3.60141C23.7075 3.55108 23.7837 3.51486 23.8649 3.49495C23.946 3.47505 24.0304 3.47188 24.1128 3.48564C24.1952 3.49939 24.274 3.52979 24.3443 3.57497C24.4145 3.62016 24.4749 3.67918 24.5216 3.74845C24.5683 3.81771 24.6005 3.89577 24.6161 3.97786C24.6316 4.05995 24.6304 4.14435 24.6123 4.22592C24.5942 4.30749 24.5596 4.38452 24.5108 4.45232Z" fill="#F23030"/>
<path d="M11.1693 19.2216L3.85849 26.5323C3.51575 26.8801 3.32361 27.3487 3.32361 27.837C3.32361 28.3252 3.51575 28.7938 3.85849 29.1416C4.20982 29.4822 4.67993 29.6727 5.16926 29.6727C5.65859 29.6727 6.12871 29.4822 6.48003 29.1416L13.7908 21.8308C13.9621 21.6587 14.0979 21.4545 14.1903 21.2299C14.2827 21.0053 14.33 20.7647 14.3294 20.5218C14.3288 20.279 14.2804 20.0386 14.1869 19.8144C14.0935 19.5903 13.9568 19.3867 13.7846 19.2154C13.6125 19.0441 13.4083 18.9083 13.1837 18.8159C12.9591 18.7235 12.7185 18.6763 12.4757 18.6768C12.2328 18.6774 11.9924 18.7258 11.7683 18.8193C11.5441 18.9127 11.3406 19.0494 11.1693 19.2216Z" fill="#F23030"/>
</g>
<defs>
<clipPath id="clip0_3019_330">
<rect width="33" height="33" fill="white"/>
</clipPath>
</defs>
</svg>
