<svg width="32" height="32" viewBox="0 0 32 32" fill="none" xmlns="http://www.w3.org/2000/svg">
<path d="M30.1415 8.94771L23.0523 1.85847C22.8823 1.68959 22.6806 1.55591 22.4588 1.4651C22.2371 1.37428 21.9996 1.32812 21.76 1.32924C21.4543 1.33047 21.1537 1.40759 20.8852 1.55366C20.6166 1.69974 20.3886 1.9102 20.2215 2.16617L15.1753 10.1046C12.8895 9.55612 10.4803 9.90406 8.44304 11.0769C8.20235 11.217 7.99724 11.4107 7.84369 11.643C7.69013 11.8753 7.59227 12.14 7.55773 12.4163C7.52319 12.6926 7.5529 12.9732 7.64455 13.2361C7.7362 13.4991 7.88731 13.7373 8.08611 13.9323L18.0553 23.9016C18.253 24.0997 18.4931 24.2503 18.7575 24.3419C19.0219 24.4336 19.3036 24.464 19.5815 24.4308C19.8556 24.3926 20.1179 24.2946 20.3498 24.1435C20.5816 23.9925 20.7774 23.7922 20.923 23.5569C22.0977 21.5205 22.4499 19.1122 21.9077 16.8246L29.8338 11.7785C30.0648 11.632 30.2598 11.4353 30.4044 11.2031C30.549 10.9709 30.6394 10.7091 30.6689 10.4371C30.6985 10.1652 30.6664 9.8901 30.5751 9.63226C30.4838 9.37441 30.3356 9.14044 30.1415 8.94771ZM22.5107 5.45232L19.9015 9.55078C19.8601 9.62336 19.8044 9.68675 19.7377 9.73708C19.671 9.78741 19.5947 9.82363 19.5136 9.84353C19.4324 9.86344 19.3481 9.86661 19.2656 9.85285C19.1832 9.8391 19.1045 9.8087 19.0342 9.76351C18.9639 9.71833 18.9036 9.65931 18.8568 9.59004C18.8101 9.52078 18.778 9.44272 18.7624 9.36063C18.7468 9.27854 18.7481 9.19414 18.7662 9.11257C18.7843 9.03099 18.8188 8.95396 18.8677 8.88617L21.4769 4.78771C21.5183 4.71513 21.574 4.65174 21.6407 4.60141C21.7074 4.55108 21.7837 4.51486 21.8648 4.49495C21.946 4.47505 22.0303 4.47188 22.1127 4.48564C22.1952 4.49939 22.2739 4.52979 22.3442 4.57497C22.4145 4.62016 22.4748 4.67918 22.5216 4.74845C22.5683 4.81771 22.6004 4.89577 22.616 4.97786C22.6316 5.05995 22.6303 5.14435 22.6122 5.22592C22.5941 5.30749 22.5596 5.38452 22.5107 5.45232Z" fill="#6B7280"/>
<path d="M9.1692 20.2216L1.85843 27.5323C1.51569 27.8801 1.32355 28.3487 1.32355 28.837C1.32355 29.3252 1.51569 29.7938 1.85843 30.1416C2.20975 30.4822 2.67987 30.6727 3.1692 30.6727C3.65853 30.6727 4.12865 30.4822 4.47997 30.1416L11.7907 22.8308C11.9621 22.6587 12.0978 22.4545 12.1902 22.2299C12.2826 22.0053 12.3299 21.7647 12.3293 21.5218C12.3288 21.279 12.2804 21.0386 12.1869 20.8144C12.0934 20.5903 11.9567 20.3867 11.7846 20.2154C11.6125 20.0441 11.4083 19.9083 11.1837 19.8159C10.9591 19.7235 10.7185 19.6763 10.4756 19.6768C10.2328 19.6774 9.99239 19.7258 9.76823 19.8193C9.54408 19.9127 9.34052 20.0494 9.1692 20.2216Z" fill="#6B7280"/>
</svg>
